<svg width="123" height="21" viewBox="0 0 123 21" fill="none" xmlns="http://www.w3.org/2000/svg">
<g id="Vector">
<path fill-rule="evenodd" clip-rule="evenodd" d="M15.6294 19.4909C19.3546 17.3401 21.2491 13.2363 20.7662 9.21957L17.0673 11.3552C16.8003 13.3451 15.6463 15.194 13.773 16.2756C10.5658 18.1273 6.46461 17.0284 4.61288 13.8211C2.76116 10.6138 3.86007 6.51271 7.06733 4.661C9.59585 3.20116 12.6799 3.57522 14.7794 5.37048L9.07289 8.66512L8.1594 13.5234L20.1057 6.62617C19.9208 6.16171 19.7001 5.70482 19.4428 5.25907C16.5658 0.276014 10.194 -1.43132 5.21096 1.44567C0.227881 4.32265 -1.47942 10.6944 1.39755 15.6775C4.27452 20.6606 10.6463 22.3679 15.6294 19.4909Z" fill="black"/>
<path d="M45.1611 13.4806L44.3659 15.1255L44.3556 15.144C43.3056 17.035 41.946 18.4756 40.2689 19.4349C38.5921 20.394 36.6436 20.8459 34.4573 20.8289L34.4542 20.8289C31.5082 20.7943 28.9688 19.7845 26.8398 17.8156C24.6983 15.8352 23.6193 13.3828 23.5837 10.5372C23.548 7.65233 24.5944 5.19781 26.7308 3.15279L26.7331 3.1506L26.7354 3.14843C28.8907 1.11908 31.4624 0.0365812 34.4524 0.00149869C36.5945 -0.0329126 38.5937 0.525727 40.4356 1.62914L40.4398 1.63161L40.4438 1.63412C42.166 2.69474 43.4778 4.02503 44.249 5.70514L44.2499 5.70711L45.0943 7.57542H40.6119L40.3867 7.20322C39.1026 5.08118 37.2001 3.99065 34.5475 3.93137C32.814 3.9033 31.2827 4.49431 29.8596 5.79128L29.8569 5.79375L29.8541 5.7962C28.3827 7.1116 27.6872 8.65432 27.6872 10.4313C27.6872 12.2169 28.3573 13.736 29.7092 15.0533C31.0555 16.3334 32.645 16.96 34.4841 16.9312L34.486 16.9311L34.4879 16.9311C37.1909 16.9016 39.124 15.8591 40.4314 13.8342L40.6598 13.4806H45.1611Z" fill="black"/>
<path fill-rule="evenodd" clip-rule="evenodd" d="M56.9148 0.0664602C59.7303 0.170541 62.1774 1.21981 64.1425 3.27073C66.0974 5.27866 67.1027 7.68817 67.1027 10.4635C67.1027 13.3159 66.0214 15.7955 63.8939 17.8666C61.7948 19.9099 59.2378 20.9322 56.2982 20.8286C53.4773 20.758 51.0305 19.7062 49.0673 17.691C47.1061 15.6776 46.1379 13.2654 46.1379 10.4958C46.1379 7.6182 47.214 5.1055 49.3112 3.06284C51.4122 0.983983 53.9733 -0.0382967 56.9148 0.0664602ZM56.3869 16.8994L56.3922 16.8997C58.2536 16.986 59.788 16.3945 61.0887 15.042L61.0917 15.0389L61.0947 15.0359C62.4439 13.6641 63.0608 12.1165 63.0325 10.2887C62.9714 8.54637 62.3217 7.07942 61.0936 5.82558C59.8798 4.58637 58.4587 3.99601 56.7528 3.99601H56.7465L56.7401 3.99591C54.9419 3.96721 53.4518 4.588 52.1672 5.83845C50.8896 7.08223 50.2713 8.53784 50.2413 10.3147C50.2114 12.0646 50.7738 13.5852 51.9934 14.8883C53.2154 16.1939 54.6433 16.8419 56.3816 16.8993L56.3869 16.8994Z" fill="black"/>
<path d="M111.964 7L112 14.1372H110.573L106.23 9.17115V14.1372H104.803V7.012H106.242L110.561 11.9541L110.537 7.012L111.964 7Z" fill="black"/>
<path d="M96.0999 12.7097H101.15V14.1372H94.6724V7.01196H101.114V8.4394H96.0999V9.85485H99.2666V11.2823H96.0999V12.7097Z" fill="black"/>
<path d="M89.0293 7.01196H90.6606V14.1372H89.2212V9.87884L87.158 14.1372H85.5026L83.4274 9.87884V14.1372H82V7.01196H83.6194L86.3303 12.5778L89.0293 7.01196Z" fill="black"/>
<path fill-rule="evenodd" clip-rule="evenodd" d="M113 3H81C76.5817 3 73 6.58172 73 11C73 15.4183 76.5817 19 81 19H113C117.418 19 121 15.4183 121 11C121 6.58172 117.418 3 113 3ZM81 1C75.4771 1 71 5.47715 71 11C71 16.5228 75.4771 21 81 21H113C118.523 21 123 16.5228 123 11C123 5.47715 118.523 1 113 1H81Z" fill="black"/>
</g>
</svg>
