<svg width="143" height="21" viewBox="0 0 143 21" fill="none" xmlns="http://www.w3.org/2000/svg">
<g id="Vector">
<path fill-rule="evenodd" clip-rule="evenodd" d="M15.6294 19.4909C19.3546 17.3401 21.2491 13.2363 20.7662 9.21957L17.0673 11.3552C16.8003 13.3451 15.6463 15.194 13.773 16.2756C10.5658 18.1273 6.46461 17.0284 4.61288 13.8211C2.76116 10.6138 3.86007 6.51271 7.06733 4.661C9.59585 3.20116 12.6799 3.57522 14.7794 5.37048L9.07289 8.66512L8.1594 13.5234L20.1057 6.62617C19.9208 6.16171 19.7001 5.70482 19.4428 5.25907C16.5658 0.276014 10.194 -1.43132 5.21096 1.44567C0.227881 4.32265 -1.47942 10.6944 1.39755 15.6775C4.27452 20.6606 10.6463 22.3679 15.6294 19.4909Z" fill="black"/>
<path d="M45.1611 13.4806L44.3659 15.1255L44.3556 15.144C43.3056 17.035 41.946 18.4756 40.2689 19.4349C38.5921 20.394 36.6436 20.8459 34.4573 20.8289L34.4542 20.8289C31.5082 20.7943 28.9688 19.7845 26.8398 17.8156C24.6983 15.8352 23.6193 13.3828 23.5837 10.5372C23.548 7.65233 24.5944 5.19781 26.7308 3.15279L26.7331 3.1506L26.7354 3.14843C28.8907 1.11908 31.4624 0.0365812 34.4524 0.00149869C36.5945 -0.0329126 38.5937 0.525727 40.4356 1.62914L40.4398 1.63161L40.4438 1.63412C42.166 2.69474 43.4778 4.02503 44.249 5.70514L44.2499 5.70711L45.0943 7.57542H40.6119L40.3867 7.20322C39.1026 5.08118 37.2001 3.99065 34.5475 3.93137C32.814 3.9033 31.2827 4.49431 29.8596 5.79128L29.8569 5.79375L29.8541 5.7962C28.3827 7.1116 27.6872 8.65432 27.6872 10.4313C27.6872 12.2169 28.3573 13.736 29.7092 15.0533C31.0555 16.3334 32.645 16.96 34.4841 16.9312L34.486 16.9311L34.4879 16.9311C37.1909 16.9016 39.124 15.8591 40.4314 13.8342L40.6598 13.4806H45.1611Z" fill="black"/>
<path fill-rule="evenodd" clip-rule="evenodd" d="M56.9148 0.0664602C59.7303 0.170541 62.1774 1.21981 64.1425 3.27073C66.0974 5.27866 67.1027 7.68817 67.1027 10.4635C67.1027 13.3159 66.0214 15.7955 63.8939 17.8666C61.7948 19.9099 59.2378 20.9322 56.2982 20.8286C53.4773 20.758 51.0305 19.7062 49.0673 17.691C47.1061 15.6776 46.1379 13.2654 46.1379 10.4958C46.1379 7.6182 47.214 5.1055 49.3112 3.06284C51.4122 0.983983 53.9733 -0.0382967 56.9148 0.0664602ZM56.3869 16.8994L56.3922 16.8997C58.2536 16.986 59.788 16.3945 61.0887 15.042L61.0917 15.0389L61.0947 15.0359C62.4439 13.6641 63.0608 12.1165 63.0325 10.2887C62.9714 8.54637 62.3217 7.07942 61.0936 5.82558C59.8798 4.58637 58.4587 3.99601 56.7528 3.99601H56.7465L56.7401 3.99591C54.9419 3.96721 53.4518 4.588 52.1672 5.83845C50.8896 7.08223 50.2713 8.53784 50.2413 10.3147C50.2114 12.0646 50.7738 13.5852 51.9934 14.8883C53.2154 16.1939 54.6433 16.8419 56.3816 16.8993L56.3869 16.8994Z" fill="black"/>
<path d="M133.965 7L134 13.8504H132.63L128.462 9.0839V13.8504H127.092V7.01151H128.474L132.618 11.755L132.595 7.01151L133.965 7Z" fill="black"/>
<path d="M118.739 12.4803H123.586V13.8504H117.369V7.01151H123.551V8.38159H118.739V9.74015H121.778V11.1102H118.739V12.4803Z" fill="black"/>
<path d="M111.952 7.01151H113.518V13.8504H112.136V9.76318L110.156 13.8504H108.567L106.576 9.76318V13.8504H105.205V7.01151H106.76L109.362 12.3537L111.952 7.01151Z" fill="black"/>
<path d="M100.304 7.01151L101.444 8.03619V12.9063L100.327 13.8504H95.6639L94.5471 12.9063V8.03619L95.6869 7.01151H100.304ZM100.073 8.64639L99.7741 8.38159H96.2165L95.9287 8.64639V12.2731L96.1704 12.4803H99.8202L100.073 12.2731V8.64639Z" fill="black"/>
<path d="M90.0396 7H91.4787L89.2567 13.8504H87.4146L85.7451 8.72699L84.0757 13.8504H82.2336L80 7H81.4392L83.1546 12.2501L84.8586 7H86.6201L88.3356 12.2501L90.0396 7Z" fill="black"/>
<path fill-rule="evenodd" clip-rule="evenodd" d="M132.5 2H81.5C76.8056 2 73 5.80558 73 10.5C73 15.1944 76.8056 19 81.5 19H132.5C137.194 19 141 15.1944 141 10.5C141 5.80558 137.194 2 132.5 2ZM81.5 0C75.701 0 71 4.70101 71 10.5C71 16.299 75.701 21 81.5 21H132.5C138.299 21 143 16.299 143 10.5C143 4.70101 138.299 0 132.5 0H81.5Z" fill="black"/>
</g>
</svg>
