<?xml version="1.0" standalone="no"?>
<!DOCTYPE svg PUBLIC "-//W3C//DTD SVG 1.1//EN" "http://www.w3.org/Graphics/SVG/1.1/DTD/svg11.dtd" >
<svg xmlns="http://www.w3.org/2000/svg">
<metadata>Generated by IcoMoon</metadata>
<defs>
<font id="icomoon" horiz-adv-x="1024">
<font-face units-per-em="1024" ascent="960" descent="-64" />
<missing-glyph horiz-adv-x="1024" />
<glyph unicode="&#x20;" horiz-adv-x="512" d="" />
<glyph unicode="&#xe900;" glyph-name="account" d="M986.097-55.603h-95.927v95.92c0 38.166-15.155 74.759-42.145 101.749-26.982 26.982-63.583 42.138-101.742 42.138h-498.078c-38.162 0-74.759-15.155-101.744-42.138-26.984-26.99-42.143-63.583-42.143-101.749v-95.92h-95.925v95.92c0 63.605 25.266 124.599 70.24 169.574s105.971 70.241 169.573 70.241h498.078c63.605 0 124.599-25.266 169.574-70.241s70.239-105.969 70.239-169.574v-95.92zM505.871 376.056c-37.791 0-75.212 7.444-110.127 21.906s-66.638 35.659-93.361 62.382c-26.722 26.723-47.92 58.446-62.381 93.361s-21.906 72.335-21.906 110.127c0 37.791 7.444 75.212 21.906 110.127s35.659 66.638 62.381 93.361c26.723 26.722 58.447 47.92 93.361 62.382s72.335 21.906 110.127 21.906c76.323 0 149.519-30.319 203.488-84.287 53.967-53.968 84.285-127.165 84.285-203.488s-30.318-149.519-84.285-203.488c-53.968-53.968-127.165-84.288-203.488-84.288zM505.871 471.981c50.882 0 99.68 20.212 135.659 56.191s56.191 84.777 56.191 135.659c0 50.882-20.212 99.68-56.191 135.659s-84.777 56.191-135.659 56.191c-50.882 0-99.68-20.213-135.659-56.191s-56.191-84.777-56.191-135.659c0-50.882 20.213-99.68 56.191-135.659s84.777-56.191 135.659-56.191zM994.487-64h-112.706v104.316c0 35.935-14.277 70.4-39.687 95.81s-59.875 39.687-95.81 39.687h-498.078c-35.935 0-70.399-14.277-95.808-39.687s-39.686-59.875-39.686-95.81v-104.316h-112.712v104.316c0 65.829 26.15 128.965 72.698 175.514 46.548 46.544 109.68 72.694 175.508 72.694h498.078c65.829 0 128.958-26.15 175.506-72.694 46.548-46.548 72.697-109.685 72.697-175.514v-104.316zM505.871 367.663c-38.893 0-77.406 7.66-113.339 22.544s-68.582 36.7-96.084 64.202c-27.502 27.502-49.317 60.151-64.201 96.084s-22.545 74.445-22.545 113.339c0 38.894 7.661 77.406 22.545 113.339s36.699 68.582 64.201 96.084c27.502 27.502 60.151 49.318 96.084 64.202s74.446 22.544 113.339 22.544c78.549 0 153.881-31.203 209.423-86.746s86.746-130.874 86.746-209.423c0-78.549-31.203-153.88-86.746-209.423s-130.875-86.746-209.423-86.746zM505.871 480.374c48.656 0 95.319 19.329 129.723 53.734s53.734 81.067 53.734 129.723c0 48.655-19.329 95.318-53.734 129.723s-81.067 53.734-129.723 53.734c-48.655 0-95.318-19.329-129.723-53.734s-53.734-81.068-53.734-129.723c0-48.656 19.329-95.319 53.734-129.723s81.068-53.734 129.723-53.734zM986.097-55.603v95.92c0 63.605-25.264 124.599-70.239 169.574s-105.969 70.241-169.574 70.241h-498.078c-63.602 0-124.6-25.266-169.573-70.241s-70.24-105.969-70.24-169.574v-95.92h95.925v95.92c0 38.166 15.16 74.759 42.143 101.749 26.985 26.982 63.582 42.138 101.744 42.138h498.078c38.159 0 74.759-15.155 101.742-42.138 26.99-26.99 42.145-63.583 42.145-101.749v-95.92h95.927zM395.745 397.962c34.915-14.462 72.335-21.906 110.127-21.906 76.323 0 149.519 30.319 203.488 84.288 53.967 53.968 84.285 127.165 84.285 203.488s-30.318 149.519-84.285 203.488c-53.968 53.968-127.165 84.287-203.488 84.287-37.791 0-75.212-7.444-110.127-21.906s-66.638-35.659-93.361-62.382c-26.722-26.723-47.92-58.446-62.381-93.361s-21.906-72.335-21.906-110.127c0-37.791 7.444-75.212 21.906-110.127s35.659-66.638 62.381-93.361c26.723-26.723 58.447-47.92 93.361-62.382zM641.53 528.173c-35.979-35.979-84.777-56.191-135.659-56.191s-99.68 20.212-135.659 56.191c-35.978 35.979-56.191 84.777-56.191 135.659s20.213 99.68 56.191 135.659c35.979 35.978 84.777 56.191 135.659 56.191s99.68-20.213 135.659-56.191c35.979-35.979 56.191-84.777 56.191-135.659s-20.212-99.68-56.191-135.659z" />
<glyph unicode="&#xe901;" glyph-name="arrow1-left" horiz-adv-x="1195" d="M448 0l104.533 108.267-265.067 265.067h907.2v149.333h-907.2l265.067 265.067-104.533 108.267-448-448 448-448z" />
<glyph unicode="&#xe902;" glyph-name="arrow1-right" horiz-adv-x="1195" d="M746.667 0l-104.533 108.267 265.062 265.067h-907.196v149.333h907.196l-265.062 265.067 104.533 108.267 448-448-448-448z" />
<glyph unicode="&#xe903;" glyph-name="arrow1-top-left" d="M110.277-64l-110.277 110.277 756.184 756.184h-677.415v157.539h945.231v-945.231h-157.539v677.416l-756.184-756.184z" />
<glyph unicode="&#xe904;" glyph-name="arrow-down" horiz-adv-x="1707" d="M0 789.333l853.333-853.333 853.333 853.333-151.467 151.467-701.867-701.867-701.867 701.866-151.467-151.466z" />
<glyph unicode="&#xe905;" glyph-name="arrow-left" horiz-adv-x="652" d="M512-64l-512 512 512 512 90.88-90.88-421.12-421.12 421.12-421.125-90.88-90.875z" />
<glyph unicode="&#xe906;" glyph-name="arrow-right" horiz-adv-x="597" d="M128-42.667l469.333 469.333-469.333 469.333-83.307-83.307 386.027-386.027-386.027-386.031 83.307-83.302z" />
<glyph unicode="&#xe907;" glyph-name="arrow-up" horiz-adv-x="1609" d="M1609.143 155.429l-804.571 804.571-804.571-804.571 142.811-142.811 661.76 661.76 661.767-661.76 142.804 142.811z" />
<glyph unicode="&#xe908;" glyph-name="bag" horiz-adv-x="967" d="M870.4-64h-819.2c-13.579 0-26.602 5.393-36.204 14.996s-14.996 22.625-14.996 36.204v921.6c0 13.579 5.394 26.602 14.996 36.204s22.625 14.996 36.204 14.996h819.2c13.579 0 26.601-5.394 36.204-14.996s14.996-22.625 14.996-36.204v-921.6c0-13.579-5.393-26.601-14.996-36.204s-22.625-14.996-36.204-14.996zM819.2 38.4v819.2h-716.8v-819.2h716.8zM307.2 755.2v-102.4c0-40.737 16.183-79.806 44.988-108.612s67.875-44.988 108.612-44.988c40.737 0 79.806 16.183 108.612 44.988 28.803 28.806 44.988 67.875 44.988 108.612v102.4h102.4v-102.4c0-67.895-26.971-133.010-74.98-181.019s-113.125-74.981-181.020-74.981c-67.895 0-133.010 26.972-181.019 74.981s-74.981 113.124-74.981 181.019v102.4h102.4z" />
<glyph unicode="&#xe909;" glyph-name="beach" d="M1015.974 146.573c-32.778 17.395-69.32 26.491-106.427 26.491-37.105 0-73.646-9.096-106.424-26.491-28.436-15.086-60.134-22.973-92.326-22.973-32.189 0-63.89 7.887-92.324 22.973-32.781 17.4-69.327 26.499-106.44 26.499-37.11 0-73.656-9.098-106.437-26.499-28.442-15.096-60.152-22.991-92.352-22.991s-63.909 7.895-92.351 22.991c-32.777 17.395-69.318 26.491-106.425 26.491s-73.648-9.096-106.425-26.491c-3.541-1.871-6.193-5.074-7.373-8.901s-0.791-7.967 1.081-11.507c1.872-3.54 5.074-6.193 8.901-7.37 3.827-1.18 7.967-0.794 11.507 1.080 28.433 15.089 60.132 22.981 92.321 22.981s63.888-7.892 92.322-22.981c32.782-17.395 69.327-26.491 106.437-26.491 37.112 0 73.659 9.096 106.44 26.491 28.436 15.089 60.137 22.976 92.329 22.976s63.892-7.887 92.332-22.976c32.781-17.398 69.325-26.493 106.437-26.493s73.656 9.096 106.437 26.493c28.434 15.086 60.134 22.976 92.321 22.976 32.189 0 63.887-7.89 92.321-22.976 3.54-1.874 7.68-2.26 11.507-1.080 3.827 1.178 7.030 3.83 8.901 7.37 1.874 3.54 2.26 7.68 1.083 11.507-1.18 3.827-3.832 7.030-7.373 8.901zM1015.974 303.939c-32.781 17.4-69.327 26.499-106.44 26.499-37.11 0-73.656-9.098-106.437-26.499-28.434-15.091-60.134-22.981-92.326-22.981-32.189 0-63.89 7.89-92.324 22.981-27.215 14.431-57.080 23.171-87.78 25.69-30.7 2.516-61.591-1.242-90.793-11.046-111.209 46.095-201.084 152.776-160.251 270.807 32.1 92.751 116.611 129.683 188.46 143.989-12.178-8.28-23.214-18.126-32.824-29.284-13.507-15.943-23.444-34.59-29.146-54.691s-7.035-41.19-3.912-61.85c20.879-163.016 219.63-166.968 238.034-166.968h368.632c3.999 0 7.831 1.587 10.657 4.413s4.416 6.661 4.416 10.657c0 3.999-1.59 7.831-4.416 10.66-2.826 2.826-6.659 4.413-10.657 4.413h-367.624c-34.030 0.236-67.804 5.919-100.037 16.829-64.788 22.73-101.496 64.399-109.11 123.845-2.642 16.497-1.677 33.372 2.831 49.459 4.506 16.087 12.447 31.009 23.276 43.732 28.035 33.021 76.887 54.657 127.47 56.457 10.639 0.38 20.997 3.521 30.054 9.114 9.060 5.593 16.507 13.446 21.612 22.788 5.107 9.342 7.695 19.851 7.511 30.495s-3.133 21.058-8.558 30.218c-34.529 57.637-106.578 126.334-253.755 126.334-140.561 0-271.761-74.932-379.439-216.709-2.376-3.186-3.398-7.182-2.843-11.117s2.643-7.493 5.808-9.897c3.165-2.404 7.152-3.461 11.092-2.94s7.515 2.577 9.947 5.721c101.761 133.982 224.667 204.797 355.435 204.797 133.061 0 197.373-60.729 227.899-111.675 2.767-4.603 4.275-9.853 4.372-15.223 0.095-5.37-1.221-10.671-3.822-15.37-2.524-4.729-6.234-8.722-10.762-11.59s-9.723-4.513-15.076-4.775c-20.559 1.55-268.902 16.141-334.008-171.991-33.694-97.403 8.793-226.243 151.293-296.824-28.16-14.336-59.359-21.681-90.957-21.414-31.601 0.266-62.67 8.138-90.585 22.945-32.78 17.4-69.326 26.499-106.438 26.499s-73.658-9.098-106.438-26.499c-3.53-1.874-6.171-5.076-7.341-8.899s-0.774-7.951 1.101-11.482c1.875-3.53 5.076-6.172 8.899-7.342s7.953-0.776 11.484 1.101c28.435 15.084 60.133 22.971 92.321 22.971s63.886-7.887 92.322-22.971c32.777-17.408 69.325-26.511 106.437-26.511 37.115 0 73.661 9.103 106.44 26.511 28.436 15.084 60.14 22.971 92.329 22.971 32.192 0 63.892-7.887 92.332-22.971 32.778-17.403 69.325-26.501 106.437-26.501s73.659 9.098 106.437 26.501c28.436 15.084 60.134 22.971 92.321 22.971 32.189 0 63.887-7.887 92.321-22.971 3.53-1.871 7.662-2.266 11.482-1.093s7.017 3.817 8.888 7.347c1.871 3.53 2.266 7.66 1.093 11.479s-3.814 7.017-7.345 8.888zM1015.974-10.852c-32.783 17.395-69.327 26.491-106.44 26.491-37.11 0-73.656-9.096-106.437-26.491-28.434-15.096-60.134-22.991-92.326-22.991s-63.892 7.895-92.324 22.991c-32.783 17.395-69.327 26.491-106.44 26.491-37.11 0-73.656-9.096-106.437-26.491-28.434-15.096-60.134-22.991-92.326-22.991s-63.892 7.895-92.325 22.991c-32.782 17.395-69.327 26.491-106.438 26.491s-73.656-9.096-106.438-26.491c-3.464-1.91-6.039-5.102-7.17-8.893s-0.726-7.872 1.126-11.366c1.852-3.497 5.004-6.121 8.776-7.314s7.86-0.852 11.384 0.942c28.435 15.086 60.133 22.973 92.321 22.973s63.887-7.887 92.322-22.973c32.776-17.411 69.325-26.516 106.437-26.516 37.115 0 73.661 9.106 106.44 26.516 28.436 15.089 60.137 22.979 92.329 22.979s63.892-7.89 92.332-22.979c32.778-17.403 69.325-26.501 106.437-26.501s73.659 9.098 106.437 26.501c28.436 15.086 60.134 22.973 92.321 22.973 32.189 0 63.887-7.887 92.321-22.973 3.525-1.795 7.613-2.135 11.384-0.942 3.773 1.193 6.925 3.817 8.776 7.314 1.853 3.494 2.258 7.575 1.126 11.366-1.129 3.791-3.704 6.984-7.168 8.893z" />
<glyph unicode="&#xe90a;" glyph-name="bleach" horiz-adv-x="1303" d="M60.652 10.947c-25.702-12.279-52.171-10.166-58.884 4.794-6.905 14.963 8.631 37.020 34.333 49.487l1206.644 577.526c25.702 12.275 52.177 10.166 58.889-4.795 6.898-14.961-8.63-37.019-34.332-49.486l-1206.65-577.526zM1242.745 10.947c25.702-12.279 52.177-10.166 58.889 4.794 6.712 14.963-8.63 37.020-34.332 49.487l-1206.65 577.526c-25.702 12.275-52.171 10.166-59.076-4.795-6.713-14.961 8.631-37.019 34.333-49.486l1206.836-577.526zM677.69 906.678l471.843-968.425h-995.663l497.734 1021.747 25.894-53.322h0.192zM1055.353-1.899l-403.749 828.595-403.557-828.595h807.307z" />
<glyph unicode="&#xe90b;" glyph-name="body" horiz-adv-x="1050" d="M283.484 510.103c13.437 28.705 22.103 54.833 26.534 79.905 10.429 59.863 3.848 121.061-19.031 177.011l-73.217 179.657c-2.169 5.257-6.333 9.441-11.579 11.636s-11.149 2.222-16.415 0.075c-5.266-2.147-9.468-6.293-11.685-11.53s-2.268-11.14-0.144-16.415l73.239-179.657c19.823-48.541 25.532-101.694 16.472-153.337-3.763-21.245-11.313-43.866-23.224-69.304l-27.868-61.025c-74.895-163.443-84.27-346.885-26.384-516.564 0.914-2.675 2.345-5.14 4.211-7.26s4.133-3.85 6.669-5.094c2.536-1.244 5.292-1.976 8.111-2.156s5.645 0.2 8.318 1.114c2.673 0.911 5.139 2.342 7.259 4.211 2.12 1.866 3.851 4.132 5.095 6.666 1.244 2.537 1.976 5.294 2.155 8.113s-0.199 5.645-1.113 8.317c-48.476 141.678-46.707 295.724 5.010 436.252 93.452-36.9 188.732-55.521 285.301-55.521 93.215 0 187.635 17.418 282.614 51.822 50.383-139.574 51.656-292.157 3.612-432.553-1.846-5.396-1.469-11.308 1.042-16.43 2.514-5.12 6.958-9.034 12.355-10.877 5.399-1.846 11.308-1.472 16.43 1.042 5.12 2.511 9.034 6.956 10.88 12.355 53.617 156.646 49.567 327.286-11.42 481.213-0.064 0.172-0.020 0.366-0.084 0.538-0.064 0.151-0.195 0.259-0.259 0.41-4.567 11.584-9.436 23.050-14.6 34.383l-27.955 61.261c-11.804 25.244-19.374 47.864-23.114 69.066-9.075 51.666-3.364 104.842 16.471 153.403l73.239 179.636c2.125 5.275 2.074 11.178-0.143 16.415s-6.42 9.383-11.686 11.53c-5.266 2.147-11.169 2.12-16.415-0.075-5.248-2.195-9.411-6.379-11.579-11.636l-73.219-179.614c-22.892-56.056-29.481-117.438-19.008-177.076 4.429-25.032 13.094-51.156 26.447-79.69l27.891-61.092c1.848-4.042 3.505-8.169 5.268-12.255-182.712-65.8-362.842-64.596-535.919 3.633 1.268 2.883 2.408 5.786 3.72 8.645l27.718 60.854zM5.020 505.93c1.745-2.222 3.913-4.081 6.378-5.463 2.465-1.385 5.179-2.268 7.986-2.598 2.807-0.333 5.653-0.108 8.372 0.666 2.719 0.771 5.26 2.071 7.475 3.827l161.53 127.34c2.558 2.010 4.626 4.572 6.048 7.496s2.161 6.134 2.161 9.385c0 3.251-0.739 6.461-2.161 9.385s-3.49 5.486-6.048 7.496l-161.53 127.34c-2.208 1.831-4.76 3.203-7.506 4.033s-5.63 1.103-8.483 0.801c-2.853-0.301-5.616-1.171-8.128-2.556s-4.721-3.26-6.497-5.513c-1.776-2.253-3.084-4.838-3.846-7.603s-0.963-5.656-0.591-8.5c0.372-2.844 1.31-5.585 2.757-8.062s3.376-4.638 5.672-6.358l140.113-110.46-140.113-110.461c-2.222-1.743-4.079-3.909-5.462-6.369-1.384-2.463-2.268-5.174-2.601-7.98s-0.11-5.647 0.657-8.366c0.768-2.719 2.064-5.258 3.816-7.475zM1033.29 787.254c-3.533 4.471-8.696 7.357-14.356 8.026s-11.354-0.933-15.834-4.456l-161.528-127.341c-2.557-2.007-4.626-4.57-6.049-7.496-1.421-2.924-2.161-6.134-2.161-9.385s0.74-6.459 2.161-9.385c1.423-2.924 3.492-5.486 6.049-7.493l161.528-127.342c4.477-3.533 10.176-5.143 15.839-4.475s10.831 3.558 14.364 8.033c3.533 4.477 5.143 10.173 4.475 15.839-0.668 5.663-3.558 10.831-8.033 14.364l-140.114 110.459 140.114 110.461c4.47 3.534 7.357 8.7 8.023 14.361 0.663 5.661-0.945 11.355-4.477 15.829zM519.155 175.752c-9.569 0-17.997-6.341-20.664-15.544l-56.832-196.667c-1.58-5.481-0.916-11.364 1.841-16.356 2.76-4.995 7.388-8.686 12.867-10.266 5.481-1.58 11.366-0.916 16.358 1.841 4.992 2.76 8.684 7.388 10.263 12.869l36.168 125.146 36.168-125.146c1.697-5.343 5.409-9.81 10.35-12.454 4.941-2.642 10.719-3.254 16.105-1.7 5.384 1.551 9.948 5.146 12.723 10.015 2.775 4.867 3.538 10.627 2.13 16.051l-56.832 196.667c-1.293 4.477-4.004 8.415-7.726 11.218-3.722 2.806-8.256 4.324-12.918 4.326z" />
<glyph unicode="&#xe90c;" glyph-name="btn-play" d="M512 960c-282.77 0-512-229.23-512-512 0-282.772 229.23-512 512-512 282.772 0 512 229.228 512 512-0.302 282.643-229.353 511.698-512 512zM512 9.142c-242.375 0-438.858 196.483-438.858 438.858s196.483 438.858 438.858 438.858c242.375 0 438.858-196.483 438.858-438.858-0.262-242.267-196.591-438.596-438.858-438.858zM727.626 464.313c-3.544 7.111-9.313 12.875-16.424 16.419l-292.569 146.286c-18.068 9.028-40.033 1.702-49.063-16.367-2.54-5.081-3.86-10.684-3.857-16.365v-292.57c-0.009-20.201 16.356-36.58 36.555-36.591 5.68-0.006 11.283 1.32 16.365 3.857l292.569 146.286c18.079 9.008 25.429 30.969 16.424 49.046zM438.858 360.886v174.228l174.228-87.114-174.228-87.114z" />
<glyph unicode="&#xe90d;" glyph-name="calendar" horiz-adv-x="896" d="M448 153.6c8.861 0 17.523 2.63 24.89 7.552s13.109 11.917 16.5 20.102c3.391 8.186 4.278 17.197 2.549 25.888s-5.996 16.672-12.261 22.938c-6.265 6.266-14.248 10.528-22.938 12.256-8.69 1.734-17.698 0.845-25.884-2.547s-15.183-9.133-20.106-16.499c-4.923-7.366-7.55-16.032-7.55-24.89 0-11.885 4.72-23.277 13.122-31.68s19.796-13.12 31.678-13.12zM672 153.6c8.858 0 17.523 2.63 24.89 7.552s13.107 11.917 16.499 20.102c3.392 8.186 4.282 17.197 2.547 25.888-1.728 8.691-5.99 16.672-12.256 22.938s-14.246 10.528-22.938 12.256c-8.691 1.734-17.702 0.845-25.888-2.547s-15.181-9.133-20.104-16.499c-4.923-7.366-7.55-16.032-7.55-24.89 0-11.885 4.72-23.277 13.12-31.68 8.403-8.403 19.795-13.12 31.68-13.12zM672 332.8c8.858 0 17.523 2.627 24.89 7.55s13.107 11.919 16.499 20.106c3.392 8.186 4.282 17.194 2.547 25.884-1.728 8.691-5.99 16.673-12.256 22.938s-14.246 10.532-22.938 12.261c-8.691 1.729-17.702 0.842-25.888-2.549s-15.181-9.133-20.104-16.5c-4.923-7.367-7.55-16.029-7.55-24.89 0-11.882 4.72-23.277 13.12-31.678 8.403-8.402 19.795-13.122 31.68-13.122zM448 332.8c8.861 0 17.523 2.627 24.89 7.55s13.109 11.919 16.5 20.106c3.391 8.186 4.278 17.194 2.549 25.884s-5.996 16.673-12.261 22.938c-6.265 6.266-14.248 10.532-22.938 12.261s-17.698 0.842-25.884-2.549c-8.186-3.391-15.183-9.133-20.106-16.5s-7.55-16.029-7.55-24.89c0-11.882 4.72-23.277 13.122-31.678s19.796-13.122 31.678-13.122zM761.6 870.4h-44.8v44.8c0 11.882-4.717 23.277-13.12 31.678s-19.795 13.122-31.68 13.122c-11.885 0-23.277-4.72-31.68-13.122-8.4-8.402-13.12-19.797-13.12-31.678v-44.8h-358.4v44.8c0 11.882-4.72 23.277-13.122 31.678s-19.796 13.122-31.678 13.122c-11.882 0-23.277-4.72-31.678-13.122s-13.122-19.797-13.122-31.678v-44.8h-44.8c-35.645 0-69.83-14.16-95.035-39.365s-39.365-59.39-39.365-95.035v-627.2c0-35.648 14.16-69.83 39.365-95.034 25.205-25.21 59.39-39.366 95.035-39.366h627.2c35.648 0 69.83 14.157 95.034 39.366 25.21 25.203 39.366 59.386 39.366 95.034v627.2c0 35.645-14.157 69.83-39.366 95.035-25.203 25.205-59.386 39.365-95.034 39.365zM806.4 108.8c0-11.885-4.717-23.277-13.12-31.68s-19.795-13.12-31.68-13.12h-627.2c-11.882 0-23.277 4.717-31.678 13.12s-13.122 19.795-13.122 31.68v403.2h716.8v-403.2zM806.4 601.6h-716.8v134.4c0 11.882 4.72 23.277 13.122 31.678s19.796 13.122 31.678 13.122h44.8v-44.8c0-11.882 4.72-23.277 13.122-31.678s19.796-13.122 31.678-13.122c11.882 0 23.277 4.72 31.678 13.122s13.122 19.796 13.122 31.678v44.8h358.4v-44.8c0-11.882 4.72-23.277 13.12-31.678 8.403-8.402 19.795-13.122 31.68-13.122s23.277 4.72 31.68 13.122c8.403 8.401 13.12 19.796 13.12 31.678v44.8h44.8c11.885 0 23.277-4.72 31.68-13.122s13.12-19.796 13.12-31.678v-134.4zM224 332.8c8.861 0 17.522 2.627 24.89 7.55s13.109 11.919 16.5 20.106c3.391 8.186 4.278 17.194 2.549 25.884s-5.996 16.673-12.261 22.938c-6.265 6.266-14.248 10.532-22.938 12.261s-17.698 0.842-25.884-2.549c-8.186-3.391-15.183-9.133-20.106-16.5s-7.55-16.029-7.55-24.89c0-11.882 4.72-23.277 13.122-31.678s19.796-13.122 31.678-13.122zM224 153.6c8.861 0 17.522 2.63 24.89 7.552s13.109 11.917 16.5 20.102c3.391 8.186 4.278 17.197 2.549 25.888s-5.996 16.672-12.261 22.938c-6.265 6.266-14.248 10.528-22.938 12.256-8.69 1.734-17.698 0.845-25.884-2.547s-15.183-9.133-20.106-16.499c-4.923-7.366-7.55-16.032-7.55-24.89 0-11.885 4.72-23.277 13.122-31.68s19.796-13.12 31.678-13.12z" />
<glyph unicode="&#xe90e;" glyph-name="car" horiz-adv-x="1536" d="M0 896c0 35.346 28.654 64 64 64h928c35.343 0 64-28.654 64-64v-160h210.286c20.056 0 38.949-9.4 51.046-25.394l205.714-272c8.404-11.115 12.954-24.67 12.954-38.606v-272c0-35.343-28.657-64-64-64h-170.928c-26.353-74.569-97.477-128-181.072-128s-154.719 53.431-181.072 128h-373.853c-26.358-74.569-97.477-128-181.075-128s-154.717 53.431-181.075 128h-138.925c-35.346 0-64 28.657-64 64v768zM202.925 192c26.358 74.571 97.477 128 181.075 128s154.717-53.428 181.075-128h362.925v640h-800v-640h74.925zM1056 309.075v298.925h178.447l173.553-229.476v-186.524h-106.928c-26.353 74.572-97.477 128-181.072 128-22.44 0-43.981-3.85-64-10.925zM384 192c-35.346 0-64-28.657-64-64s28.654-64 64-64c35.345 0 64 28.657 64 64s-28.655 64-64 64zM1120 192c-35.343 0-64-28.657-64-64s28.657-64 64-64c35.343 0 64 28.657 64 64s-28.657 64-64 64z" />
<glyph unicode="&#xe90f;" glyph-name="card" horiz-adv-x="1205" d="M1122.352 718.734h-419.123c14.074 23.010 21.507 49.466 21.477 76.44 0 81.087-65.973 147.059-147.058 147.059-50.378 0-96.488-25.228-123.72-67.581l-91.576-118.358-91.573 118.358c-27.231 42.353-73.339 67.584-123.72 67.584-81.087 0-147.059-65.972-147.059-147.059 0-35.174 12.428-67.494 33.104-92.828-20.082-15.033-33.104-39.007-33.104-65.968v-611.765c0-45.408 36.944-82.351 82.353-82.351h1039.999c45.411 0 82.354 36.942 82.354 82.351v611.765c0 45.413-36.942 82.354-82.354 82.354zM1134.116 24.615c0-6.484-5.277-11.764-11.764-11.764h-724.706v581.695l71.298-98.894c3.271-4.545 7.575-8.243 12.559-10.791 4.981-2.548 10.502-3.873 16.101-3.867 7.15 0 14.366 2.165 20.61 6.668 15.812 11.4 19.387 33.458 7.99 49.266l-80.167 111.197 676.316 0.021c6.487 0 11.764-5.28 11.764-11.767v-611.765zM147.059 871.647c26.52 0 50.772-13.463 64.878-36.012 0.621-0.993 1.292-1.955 2.007-2.88l88.236-114.040-154.233 0.021c-0.421-0.004-0.843-0.014-1.264-0.028-41.993 0.202-76.094 34.426-76.094 76.468 0 42.165 34.306 76.471 76.471 76.471zM512.768 835.635c14.107 22.548 38.361 36.012 64.879 36.012 42.165 0 76.472-34.306 76.472-76.471 0-42.045-34.108-76.275-76.107-76.471-0.382 0.012-0.768 0.021-1.15 0.026l-0.413 0.002-153.922-0.021 88.236 114.043c0.717 0.927 1.385 1.887 2.006 2.88zM70.588 24.615v611.765c0 6.487 5.278 11.767 11.765 11.767l199.23-0.021-69.781-102.228c-10.988-16.101-6.847-38.060 9.254-49.050 16.101-10.987 38.059-6.846 49.049 9.252l56.954 83.441v-576.687h-244.706c-3.119 0.003-6.109 1.244-8.315 3.448s-3.446 5.195-3.45 8.312zM649.412 436.381h176.471c19.492 0 35.295 15.803 35.295 35.295s-15.803 35.295-35.295 35.295h-176.471c-19.492 0-35.295-15.803-35.295-35.295s15.803-35.295 35.295-35.295zM967.060 365.794h-317.648c-19.492 0-35.295-15.803-35.295-35.295s15.803-35.295 35.295-35.295h317.648c19.492 0 35.292 15.803 35.292 35.295s-15.8 35.295-35.292 35.295zM967.060 224.617h-317.648c-19.492 0-35.295-15.803-35.295-35.295s15.803-35.295 35.295-35.295h317.648c19.492 0 35.292 15.803 35.292 35.295s-15.8 35.295-35.292 35.295z" />
<glyph unicode="&#xe910;" glyph-name="car-order" horiz-adv-x="1195" d="M1190.315 384l-128 213.333c-8.533 12.8-21.333 21.333-38.4 21.333h-256v128c0 25.6-17.067 42.667-42.667 42.667h-157.867c-46.933 102.4-149.331 170.667-268.798 170.667-166.4 0-298.667-132.267-298.667-298.667s132.267-298.667 298.667-298.667c166.398 0 298.665 132.267 298.665 298.667 0 12.8 0 29.867-4.267 42.667h89.6v-597.333h-179.2c-17.067 51.2-64 85.333-119.465 85.333-55.467 0-102.4-34.133-119.467-85.333h-93.867v170.667c0 25.6-17.067 42.667-42.667 42.667s-42.667-17.067-42.667-42.667v-213.333c0-25.6 17.067-42.667 42.667-42.667h136.533c17.067-51.2 64-85.333 119.467-85.333 55.465 0 102.398 34.133 119.465 85.333h315.733c17.067-51.2 64-85.333 119.467-85.333s102.4 34.133 119.467 85.333h93.867c25.6 0 42.667 17.067 42.667 42.667v298.667c0 8.533 0 17.067-4.267 21.333zM298.583 448c-119.467 0-213.333 93.867-213.333 213.333s93.867 213.333 213.333 213.333c119.467 0 213.331-93.867 213.331-213.333s-93.865-213.333-213.331-213.333zM1075.115 405.333h-136.533v128h59.733l76.8-128zM383.917 21.333c-25.6 0-42.667 17.067-42.667 42.667s17.067 42.667 42.667 42.667c25.6 0 42.667-17.067 42.667-42.667s-17.067-42.667-42.667-42.667zM938.581 21.333c-25.6 0-42.667 17.067-42.667 42.667s17.067 42.667 42.667 42.667c25.6 0 42.667-17.067 42.667-42.667s-17.067-42.667-42.667-42.667zM1058.048 106.667c-17.067 51.2-64 85.333-119.467 85.333s-102.4-34.133-119.467-85.333h-51.2v426.667h85.333v-170.667c0-25.6 17.067-42.667 42.667-42.667h213.333v-213.333h-51.2zM341.25 678.4v110.933c0 25.6-17.067 42.667-42.667 42.667s-42.667-17.067-42.667-42.667v-128c0-12.8 4.267-21.333 12.8-29.867l85.333-85.333c8.533-8.533 21.333-12.8 29.867-12.8s21.333 4.267 29.867 12.8c17.065 17.067 17.065 42.667 0 59.733l-72.533 72.533z" />
<glyph unicode="&#xe911;" glyph-name="check" horiz-adv-x="1280" d="M160 618.666l-160-170.666 480-512 800 853.334-160 170.666-640-682.666-320 341.332z" />
<glyph unicode="&#xe912;" glyph-name="close" d="M1024 856.869l-103.134 103.131-408.866-408.869-408.869 408.869-103.131-103.131 408.869-408.869-408.869-408.866 103.131-103.134 408.869 408.869 408.866-408.869 103.134 103.134-408.869 408.866 408.869 408.869z" />
<glyph unicode="&#xe913;" glyph-name="collapse" horiz-adv-x="970" d="M617.434-42.679h-264.844c-239.682 0-342.087 102.405-342.087 342.086v264.843c0 239.682 102.405 342.087 342.087 342.087h264.844c239.681 0 342.086-102.405 342.086-342.087v-264.843c0-239.681-101.963-342.086-342.086-342.086zM352.591 840.126c-203.487 0-275.877-72.39-275.877-275.876v-264.843c0-203.485 72.39-275.876 275.877-275.876h264.844c203.485 0 275.876 72.391 275.876 275.876v264.843c0 203.487-72.391 275.876-275.876 275.876h-264.844zM308.45-42.679c-18.097 0-33.105 15.010-33.105 33.102v882.808c0 18.097 15.008 33.105 33.105 33.105s33.105-15.008 33.105-33.105v-882.808c0-18.092-14.567-33.102-33.105-33.102zM617.434 285.723c-8.386 0-16.777 3.088-23.396 9.712l-113 113.001c-6.156 6.23-9.609 14.633-9.609 23.392s3.452 17.164 9.609 23.394l113 112.999c12.8 12.801 33.986 12.801 46.786 0 12.805-12.801 12.805-33.988 0-46.789l-89.163-89.605 89.605-89.602c12.8-12.805 12.8-33.991 0-46.791-6.618-6.624-15.004-9.712-23.832-9.712zM473.624 400.977l-0.044 0.043c-8.107 8.208-12.653 19.273-12.653 30.809 0 11.534 4.547 22.603 12.654 30.806l0.044 0.045 112.999 112.999c16.918 16.919 44.781 16.919 61.699 0 16.918-16.914 16.923-44.767 0.016-61.686l-7.513 7.441c12.805 12.801 12.805 33.988 0 46.789-12.8 12.801-33.986 12.801-46.786 0l-113-112.999c-6.156-6.23-9.609-14.635-9.609-23.394s3.452-17.162 9.609-23.392l113-113.001c6.618-6.624 15.010-9.712 23.396-9.712 8.828 0 17.214 3.088 23.832 9.712 12.8 12.8 12.8 33.986 0 46.791l-89.605 89.602 89.163 89.605 7.513-7.441zM566.601 431.847l82.163-82.167c16.923-16.918 16.923-44.781 0-61.699-8.753-8.753-19.893-12.8-31.291-12.8-11.032 0-22.145 4.096-30.849 12.8l-112.999 112.996zM336.967 906.187c5.155 0.1 10.335 0.149 15.624 0.149h264.844c239.681 0 342.086-102.405 342.086-342.087v-264.843c0-239.681-101.963-342.086-342.086-342.086h-264.844c-5.228 0-10.349 0.049-15.446 0.146-7.169 0.14-14.209 0.372-21.122 0.706-2.413-0.555-4.974-0.852-7.572-0.852-3.954 0-7.719 0.717-11.253 2.026-7.191 0.555-14.235 1.223-21.134 2.005-185.101 21.062-265.559 125.661-265.559 338.055v264.843c0 212.397 80.458 316.993 265.559 338.055 6.899 0.785 13.943 1.454 21.134 2.008 3.534 1.309 7.3 2.024 11.253 2.024 2.544 0 5.069-0.296 7.458-0.856 6.893 0.333 13.912 0.568 21.059 0.707zM316.787 916.078c11.619 0.538 23.567 0.804 35.845 0.804h264.84c121.053 0 209.947-25.819 268.38-84.252s84.254-147.329 84.254-268.38v-264.843c0-121.037-25.702-209.942-84.081-268.374-58.379-58.438-147.284-84.254-268.552-84.254h-264.84c-12.242 0-24.155 0.259-35.741 0.798-2.712-0.523-5.519-0.798-8.399-0.798-4.698 0-9.234 0.76-13.491 2.161-92.093 7.308-162.016 33.355-210.749 82.087-58.433 58.433-84.251 147.332-84.251 268.38v264.843c0 121.051 25.819 209.948 84.251 268.38 48.733 48.733 118.655 74.781 210.748 82.086 4.257 1.404 8.793 2.165 13.491 2.165 2.833 0 5.606-0.277 8.295-0.804zM352.141 23.53c0.163 0 0.286 0 0.449 0h264.844c203.485 0 275.876 72.391 275.876 275.876v264.843c0 203.487-72.391 275.876-275.876 275.876h-264.844c-0.164 0-0.286 0.001-0.449 0.001-3.555-0.002-7.069-0.026-10.545-0.073v-816.448c3.475-0.049 6.99-0.070 10.545-0.075zM352.141 34.078c0.163 0 0.327 0 0.49 0h264.84c100.999 0 166.325 18.071 206.789 58.54 40.47 40.47 58.546 105.79 58.546 206.789v264.843c0 100.999-18.076 166.322-58.546 206.79-40.464 40.467-105.79 58.542-206.789 58.542h-264.84c-0.163 0-0.327 0-0.49 0v-795.504zM264.841 834.335c-136.994-20.708-188.128-99.133-188.128-270.085v-264.843c0-170.949 51.134-249.376 188.128-270.083 3.46-0.523 6.975-1.008 10.545-1.461v807.931c-3.57-0.45-7.085-0.936-10.545-1.459zM264.841 823.667c-53.164-8.253-91.726-25.355-119-52.628-40.467-40.467-58.542-105.791-58.542-206.79v-264.843c0-100.999 18.075-166.319 58.542-206.789 27.273-27.271 65.836-44.377 119-52.628v783.677z" />
<glyph unicode="&#xe914;" glyph-name="compare" horiz-adv-x="964" d="M396.951 618.466l-312.019 311.416-84.932-84.932 311.416-311.416 85.534 84.932zM632.471 929.882l122.88-122.88-755.351-755.953 84.932-84.932 755.953 755.351 122.88-122.88v331.294h-331.294zM652.348 363.068l-84.932-84.932 188.536-188.536-123.482-123.482h331.294v331.294l-122.88-122.88-188.536 188.536z" />
<glyph unicode="&#xe915;" glyph-name="customer" d="M329.142 338.287c-4.85 0-9.501-1.927-12.929-5.358-3.43-3.428-5.356-8.079-5.356-12.929 0-93.147 92.232-164.571 201.142-164.571s201.142 71.424 201.142 164.571c0 4.85-1.925 9.501-5.356 12.929-3.428 3.43-8.079 5.358-12.929 5.358h-365.715zM352.145 301.713h319.709c-11.704-60.123-75.485-109.713-159.855-109.713s-148.113 49.59-159.855 109.713zM713.142 658.287c50.287 0 91.429-41.144 91.429-91.429 0-50.287-41.142-91.429-91.429-91.429-50.285 0-91.429 41.142-91.429 91.429 0 50.285 41.144 91.429 91.429 91.429zM713.142 621.713c-30.501 0-54.856-24.355-54.856-54.856s24.355-54.858 54.856-54.858c30.501 0 54.858 24.357 54.858 54.858s-24.357 54.856-54.858 54.856zM310.858 658.287c-52.736 0-91.429-51.311-91.429-109.715 0-4.85 1.927-9.501 5.356-12.929 3.428-3.43 8.079-5.356 12.929-5.356s9.501 1.925 12.931 5.356c3.428 3.428 5.356 8.079 5.356 12.929 0 42.607 26.806 73.142 54.858 73.142 28.049 0 54.856-30.536 54.856-73.142 0-4.85 1.927-9.501 5.358-12.929 3.428-3.43 8.079-5.356 12.929-5.356s9.501 1.925 12.929 5.356c3.43 3.428 5.358 8.079 5.358 12.929 0 58.405-38.693 109.715-91.429 109.715zM292.571 960c-161.755 0-292.571-130.816-292.571-292.571v-438.858c0-161.755 130.816-292.571 292.571-292.571h438.858c161.755 0 292.571 130.816 292.571 292.571v438.858c0 161.755-130.816 292.571-292.571 292.571h-438.858zM292.571 923.429h438.858c142.154 0 256-113.847 256-256v-438.858c0-142.154-113.846-256-256-256h-438.858c-142.153 0-256 113.846-256 256v438.858c0 142.153 113.847 256 256 256z" />
<glyph unicode="&#xe916;" glyph-name="days-return" d="M1024 448c0-282.338-229.662-512-512-512s-512 229.662-512 512c0 9.472 3.763 18.56 10.462 25.259s15.785 10.462 25.258 10.462c9.474 0 18.56-3.763 25.259-10.462s10.462-15.787 10.462-25.259c0-242.901 197.656-440.559 440.558-440.559s440.559 197.658 440.559 440.559c0 242.902-197.658 440.558-440.559 440.558-114.251-0.359-223.892-45.103-305.771-124.785h111.449c9.474 0 18.56-3.764 25.259-10.462s10.462-15.785 10.462-25.259c0-9.474-3.764-18.56-10.462-25.259s-15.785-10.462-25.259-10.462h-190.511c-9.474 0-18.56 3.764-25.259 10.462s-10.462 15.785-10.462 25.259v190.512c0 9.474 3.763 18.56 10.462 25.259s15.785 10.462 25.259 10.462c9.474 0 18.559-3.763 25.258-10.462s10.462-15.785 10.462-25.259v-98.304c93.732 88.159 218.231 139.74 349.113 139.74 282.338 0 512-229.662 512-512zM512 745.674c-9.472 0-18.56-3.763-25.259-10.462s-10.462-15.785-10.462-25.259v-36.006c-20.698-0.544-40.917-6.304-58.796-16.746-17.876-10.442-32.828-25.228-43.467-42.988s-16.623-37.918-17.397-58.606c-0.773-20.688 3.689-41.235 12.973-59.74 14.669-29.436 40.007-51.439 71.252-61.824l119.689-39.91c13.146-4.335 23.812-13.577 30.003-25.958 6.195-12.382 7.147-26.432 2.765-39.531-3.418-10.321-10.001-19.302-18.82-25.664-8.815-6.362-19.413-9.779-30.285-9.771h-52.198c-14.43-0.013-28.501 4.523-40.205 12.958-11.703 8.439-20.454 20.356-24.998 34.052-1.487 4.45-3.834 8.567-6.911 12.113s-6.822 6.451-11.021 8.55c-4.199 2.099-8.771 3.349-13.454 3.682s-9.385-0.26-13.838-1.749c-4.453-1.485-8.57-3.831-12.116-6.908s-6.451-6.822-8.55-11.021c-2.099-4.198-3.349-8.772-3.681-13.453-0.332-4.685 0.262-9.387 1.748-13.841 8.482-25.31 24.030-47.667 44.808-64.427 20.778-16.764 45.918-27.226 72.453-30.161v-36.958c0-9.476 3.763-18.56 10.462-25.259s15.782-10.462 25.259-10.462c9.472 0 18.56 3.763 25.259 10.462s10.462 15.782 10.462 25.259v36.006c20.689 0.546 40.905 6.306 58.778 16.747 17.869 10.441 32.815 25.22 43.456 42.974 10.637 17.749 16.623 37.901 17.399 58.581 0.781 20.685-3.674 41.229-12.945 59.729-7.194 14.511-17.195 27.443-29.427 38.059-12.233 10.611-26.449 18.688-41.826 23.765l-119.689 39.91c-13.146 4.382-23.812 13.623-30.007 26.005-6.191 12.383-7.142 26.385-2.761 39.53 3.418 10.321 10.001 19.302 18.816 25.664 8.819 6.362 19.418 9.781 30.289 9.772h52.151c29.623 0 55.868-18.909 65.25-47.009 2.999-8.994 9.451-16.428 17.933-20.666 8.478-4.236 18.295-4.932 27.29-1.932s16.427 9.449 20.668 17.929c4.237 8.481 4.932 18.298 1.933 27.292-8.486 25.319-24.043 47.68-44.83 64.441s-45.935 27.223-72.478 30.148v36.959c0 9.474-3.763 18.56-10.462 25.259s-15.787 10.462-25.259 10.462h0.047z" />
<glyph unicode="&#xe917;" glyph-name="delete" horiz-adv-x="1088" d="M158.4 652.8h819.2v-665.6c0-13.581-5.395-26.605-14.995-36.205s-22.624-14.995-36.205-14.995h-716.8c-13.579 0-26.602 5.395-36.204 14.995s-14.996 22.624-14.996 36.205v665.6zM260.8 550.4v-512h614.4v512h-614.4zM414.4 448h102.4v-307.2h-102.4v307.2zM619.2 448h102.4v-307.2h-102.4v307.2zM312 806.4v102.4c0 13.579 5.395 26.602 14.996 36.204s22.625 14.996 36.204 14.996h409.6c13.581 0 26.605-5.394 36.205-14.996s14.995-22.625 14.995-36.204v-102.4h256v-102.4h-1024v102.4h256zM414.4 857.6v-51.2h307.2v51.2h-307.2z" />
<glyph unicode="&#xe918;" glyph-name="deliciousness" d="M512-64c-282.325 0-512 229.676-512 512s229.675 512 512 512c282.324 0 512-229.675 512-512 0-89.812-23.724-178.22-68.564-255.616-2.972-4.631-7.616-7.939-12.964-9.231-5.348-1.295-10.988-0.479-15.749 2.281-4.759 2.76-8.271 7.25-9.807 12.534-1.533 5.284-0.973 10.954 1.569 15.836 41.201 71.171 62.881 151.959 62.848 234.196 0 258.773-210.56 469.333-469.332 469.333s-469.333-210.56-469.333-469.333c0-258.772 210.56-469.332 469.333-469.332 99.156 0 193.708 30.464 273.364 88.105 2.266 1.718 4.851 2.964 7.603 3.668s5.619 0.852 8.43 0.433c2.811-0.417 5.509-1.393 7.939-2.87 2.427-1.477 4.536-3.423 6.203-5.724 1.667-2.304 2.854-4.915 3.497-7.685 0.643-2.767 0.724-5.637 0.243-8.438s-1.518-5.476-3.049-7.869c-1.531-2.396-3.523-4.46-5.862-6.075-86.756-62.861-191.232-96.55-298.368-96.212zM511.995 64.010c-82.191-0.212-162.268 26.022-228.398 74.829-66.132 48.804-114.808 117.588-138.834 196.188-0.832 2.675-1.129 5.489-0.874 8.279s1.057 5.504 2.361 7.985c1.304 2.481 3.083 4.68 5.236 6.472s4.639 3.144 7.314 3.976c2.675 0.832 5.489 1.129 8.279 0.873s5.503-1.057 7.983-2.36c2.48-1.303 4.679-3.082 6.472-5.235 1.793-2.156 3.143-4.641 3.975-7.316 44.715-144.169 175.914-241.024 326.486-241.024s281.772 96.855 326.484 240.983c1.682 5.402 5.44 9.917 10.447 12.549 5.010 2.634 10.86 3.167 16.264 1.487 5.402-1.679 9.917-5.437 12.549-10.447s3.167-10.86 1.487-16.261c-24.036-78.592-72.714-147.369-138.844-196.165s-146.204-75.026-228.388-74.811zM848.878 15.135c-16.832-0.067-33.51 3.231-49.052 9.7-15.539 6.472-29.629 15.982-41.444 27.976l-71.593 71.596c-3.886 4.024-6.036 9.413-5.988 15.004 0.049 5.594 2.291 10.947 6.246 14.902s9.306 6.198 14.899 6.246c5.594 0.049 10.982-2.102 15.007-5.988l71.68-71.68c32.128-32.428 88.404-32.34 120.364-0.084 16.297 16.128 25.172 37.504 25.172 60.329 0 22.828-8.876 44.16-25.004 60.16l-81.193 81.623c-2.033 1.974-3.651 4.332-4.759 6.938-1.111 2.606-1.69 5.407-1.708 8.238-0.015 2.834 0.532 5.64 1.613 8.259s2.67 4.995 4.677 6.991c2.010 1.997 4.396 3.576 7.020 4.641s5.435 1.597 8.266 1.564c2.834-0.033 5.629-0.627 8.23-1.754 2.598-1.124 4.948-2.755 6.909-4.797l81.068-81.495c24.192-23.936 37.548-56.064 37.548-90.368s-13.356-66.432-37.676-90.496c-11.791-11.95-25.851-21.425-41.354-27.863-15.506-6.441-32.141-9.718-48.929-9.641zM849.559 121.165c-5.66 0-11.090 2.24-15.104 6.228l-65.705 65.708c-3.886 4.024-6.036 9.413-5.988 15.007s2.291 10.944 6.246 14.899c3.955 3.955 9.306 6.198 14.899 6.246s10.982-2.102 15.007-5.988l65.708-65.705c2.972-2.985 4.997-6.781 5.816-10.913s0.397-8.415-1.213-12.306c-1.61-3.894-4.337-7.222-7.839-9.567-3.5-2.345-7.613-3.599-11.827-3.61zM405.399 533.325c-5.658 0-11.082 2.248-15.084 6.249s-6.249 9.426-6.249 15.084c0 35.287-28.716 64-64 64s-64-28.713-64-64c0-5.658-2.247-11.082-6.248-15.084s-9.427-6.249-15.085-6.249c-5.658 0-11.084 2.248-15.085 6.249s-6.248 9.426-6.248 15.084c0 58.796 47.871 106.668 106.666 106.668s106.668-47.872 106.668-106.668c0-5.658-2.248-11.082-6.249-15.084s-9.426-6.249-15.086-6.249zM789.399 533.325c-5.658 0-11.082 2.248-15.084 6.249s-6.249 9.426-6.249 15.084c0 35.287-28.716 64-64 64s-64-28.713-64-64c0-5.658-2.248-11.082-6.249-15.084s-9.426-6.249-15.084-6.249c-5.658 0-11.085 2.248-15.086 6.249s-6.249 9.426-6.249 15.084c0 58.796 47.872 106.668 106.668 106.668s106.668-47.872 106.668-106.668c0-5.658-2.248-11.082-6.249-15.084s-9.426-6.249-15.086-6.249z" />
<glyph unicode="&#xe919;" glyph-name="delivery-time" horiz-adv-x="1058" d="M1024 15.558c-10.267 10.267-30.799 10.267-41.062 0-25.665-25.665-71.861-25.665-97.526 0-10.264 10.267-20.531 15.401-35.929 25.665l123.187 328.503c15.401 35.929 0 76.991-30.795 97.522l-169.383 123.187v179.65c0 20.531-10.267 41.063-25.665 56.461s-35.929 25.664-56.46 25.664h-41.062v25.664c0 46.195-35.932 82.125-82.128 82.125h-92.389c-46.196 0-82.125-35.93-82.125-82.125v-25.664h-41.062c-20.533 0-41.064-10.266-56.463-25.664-25.664-15.399-30.797-35.93-30.797-56.461v-179.65l-179.649-123.187c-30.797-20.531-41.062-61.594-30.797-97.522l123.188-333.636c-10.266-5.13-20.531-15.398-30.797-20.531-25.664-25.665-71.86-25.665-97.524 0-10.266 10.267-30.797 10.267-41.063 0-10.266-10.264-10.266-30.795 0-41.062 51.328-51.326 133.454-51.326 184.782 0 25.664 25.665 71.86 25.665 97.524 0 51.328-51.326 133.453-51.326 184.783 0 25.665 25.665 71.857 25.665 97.522 0 51.33-51.326 133.455-51.326 184.784 0 25.661 25.665 71.857 25.665 97.522 0s56.46-35.929 92.392-35.929c35.929 0 66.724 15.398 92.389 35.929 0 10.267 0 25.665-15.398 41.062zM449.123 877.875c0 10.266 10.264 20.531 20.531 20.531h92.392c10.264 0 20.531-10.266 20.531-20.531v-25.664h-138.588v25.664h5.134zM325.935 770.085c0 5.133 0 10.266 5.133 15.399s10.266 5.133 15.399 5.133h343.9c5.13 0 10.264 0 15.398-5.133s5.134-10.266 5.134-15.399v-133.453l-174.517 118.055c-10.267 5.133-25.665 5.133-35.929 0l-174.518-123.188v138.586zM120.621 415.921l395.229 272.039 395.226-277.172c5.134-5.134 10.267-15.401 5.134-25.665l-41.062-112.923-338.767 236.111c-10.267 5.134-25.665 5.134-35.929 0l-343.901-230.977-41.063 118.054c-5.133 5.134-5.133 15.401 5.133 20.535zM700.631 15.558c-25.665-25.665-71.857-25.665-97.522 0-51.33 51.33-133.455 51.33-184.784 0-25.661-25.665-71.857-25.665-97.522 0s-56.461 35.932-92.391 35.932l-61.594 164.25 349.033 230.977 338.767-236.111-61.594-164.25c-35.932 5.134-66.727-5.134-92.392-30.799z" />
<glyph unicode="&#xe91a;" glyph-name="design" d="M512 959.425l-512-758.365 512-264.479 512 264.479-512 758.365zM481.984 19.653l-372.82 192.586 372.823 192.589-0.003-385.175zM481.984 472.394l-347.59-179.556 347.59 514.845v-335.289zM542.016 807.683l347.589-514.847-347.589 179.558v335.289zM542.016 404.828l372.823-192.589-372.823-192.586v385.175z" />
<glyph unicode="&#xe91b;" glyph-name="door" d="M1014.134 710.991l-494.295 247.147c-2.45 1.224-5.151 1.862-7.89 1.862s-5.443-0.637-7.892-1.862l-494.294-247.147c-2.935-1.466-5.402-3.721-7.127-6.512s-2.637-6.006-2.635-9.288v-494.295c-0.018-3.295 0.887-6.531 2.612-9.336 1.725-2.808 4.202-5.076 7.15-6.551l494.294-247.148c2.45-1.224 5.153-1.861 7.892-1.861s5.44 0.637 7.89 1.861l494.295 247.148c2.947 1.475 5.425 3.743 7.15 6.551 1.725 2.806 2.629 6.042 2.611 9.336v494.295c0.003 3.282-0.911 6.497-2.634 9.288-1.725 2.791-4.193 5.046-7.127 6.512zM511.949 467.781l-137.997 69.007 441.085 234.312 151.821-75.91-454.909-227.41zM232.725 607.401l441.088 234.313 102.39-51.195-441.034-234.349-102.443 51.231zM211.841 578.36l105.919-52.959v-140.662l-40.479 40.479c-3.31 3.31-7.798 5.171-12.48 5.171h-52.961v147.971zM511.949 922.602l123.077-61.469-441.086-234.348-136.814 68.406 454.822 227.411zM35.307 666.629l141.227-70.615v-183.276c0-4.682 1.86-9.172 5.17-12.485 3.311-3.31 7.801-5.169 12.483-5.169h63.305l65.441-65.441c2.468-2.468 5.614-4.15 9.037-4.831 3.425-0.681 6.973-0.33 10.199 1.006 3.226 1.334 5.983 3.597 7.921 6.5 1.94 2.903 2.977 6.313 2.977 9.805v165.624l141.228-70.612v-454.822l-458.988 229.494v454.822zM529.6-17.687v454.822l458.988 229.494v-454.822l-458.988-229.494z" />
<glyph unicode="&#xe91c;" glyph-name="dry-clean" horiz-adv-x="1103" d="M539.223 960c127.837 0 243.796-53.171 327.514-139.339 83.905-85.98 135.759-204.955 135.759-336.186s-51.854-250.207-135.759-336.184c-83.907-85.984-199.677-139.343-327.514-139.343s-243.796 53.169-327.513 139.343c-83.905 85.977-135.757 204.953-135.757 336.184s51.852 250.207 135.757 336.186c83.717 86.167 199.487 139.339 327.513 139.339zM826.384 779.18c-73.533 75.42-174.973 121.992-287.16 121.992s-213.628-46.572-286.974-121.992c-73.535-75.42-118.976-179.689-118.976-294.705s45.441-219.285 118.976-294.705c73.346-75.421 174.975-121.989 286.974-121.989s213.628 46.757 287.16 121.989c73.35 75.42 118.981 179.688 118.981 294.705s-45.442 219.285-118.981 294.705zM43.334 196.18c-15.838-7.542-34.128-1.885-40.916 12.822-6.599 14.706 0.754 32.807 16.592 40.35l1040.427 498.152c15.833 7.542 34.123 1.885 40.724-13.010 6.79-14.707-0.756-32.808-16.589-40.35l-1040.239-497.963zM1059.438 196.18c15.833-7.542 34.123-1.885 40.913 12.822 6.601 14.706-0.756 32.807-16.597 40.35l-1040.42 498.152c-15.838 7.542-34.128 1.885-40.916-13.010-6.599-14.707 0.754-32.808 16.592-40.35l1040.427-497.963z" />
<glyph unicode="&#xe91d;" glyph-name="edit" horiz-adv-x="896" d="M120.909 97.754c10.237 0 12.285 1.024 21.499 3.072l184.274 36.851c19.451 5.12 38.902 14.336 54.259 29.69l446.349 446.352c68.595 68.591 68.595 186.322 0 254.913l-37.875 39.926c-68.589 68.591-187.346 68.591-255.937 0l-446.353-447.376c-14.332-14.333-24.57-34.808-29.688-54.259l-38.902-186.321c-5.119-34.81 5.119-68.589 29.689-93.158 19.451-19.456 48.116-29.69 72.686-29.69zM155.716 387.471l446.352 447.376c29.689 29.688 83.948 29.688 112.613 0l38.899-38.902c34.81-34.807 34.81-83.947 0-117.731l-445.327-447.379-189.393-31.731 36.855 188.367zM823.2 34.278h-755.526c-29.689 0-49.14-19.45-49.14-49.139s24.57-49.139 49.14-49.139h751.43c29.69 0 54.259 19.45 54.259 49.139-1.024 29.69-25.594 49.139-50.163 49.139z" />
<glyph unicode="&#xe91e;" glyph-name="energy" d="M402.416 74.115c3.6-1.671 7.67-2.036 11.508-1.030 3.84 1.006 7.209 3.318 9.527 6.539l307.2 426.666c1.835 2.55 2.931 5.556 3.166 8.688 0.238 3.133-0.395 6.269-1.829 9.066-1.432 2.796-3.607 5.143-6.287 6.781-2.679 1.638-5.759 2.507-8.901 2.507h-152.916l67.074 268.934c0.963 3.85 0.553 7.915-1.159 11.495-1.71 3.58-4.616 6.452-8.217 8.121-7.467 3.434-16.267 1.142-21.035-5.508l-307.2-426.666c-1.835-2.55-2.931-5.556-3.166-8.688-0.238-3.133 0.395-6.269 1.829-9.066 1.432-2.796 3.607-5.143 6.287-6.781s5.759-2.507 8.901-2.507h152.916l-67.076-268.933c-0.961-3.85-0.549-7.916 1.161-11.495 1.712-3.58 4.618-6.451 8.217-8.122zM498.526 375.599c0.627 2.517 0.674 5.143 0.135 7.678-0.539 2.537-1.649 4.917-3.244 6.961s-3.637 3.697-5.968 4.833c-2.331 1.137-4.889 1.729-7.481 1.729h-141.449l235.823 327.535-50.868-203.934c-0.627-2.517-0.674-5.143-0.135-7.678 0.539-2.537 1.649-4.917 3.244-6.961s3.637-3.697 5.968-4.833c2.331-1.137 4.889-1.729 7.481-1.729h141.449l-235.823-327.535 50.868 203.934zM1006.934 465.066c-2.241 0-4.461-0.442-6.531-1.298-2.071-0.858-3.953-2.116-5.536-3.701-1.585-1.583-2.843-3.465-3.701-5.536s-1.298-4.291-1.298-6.531c0-263.5-214.366-477.866-477.866-477.866-141.095 0-275.329 63.283-365.734 170.666h92.666c4.526 0 8.868 1.798 12.067 4.999 3.201 3.199 4.999 7.541 4.999 12.067s-1.798 8.868-4.999 12.067c-3.199 3.201-7.541 4.999-12.067 4.999h-136.534c-4.526 0-8.867-1.798-12.067-4.999-3.201-3.199-4.999-7.541-4.999-12.067v-136.534c0-4.526 1.798-8.868 4.999-12.067 3.2-3.201 7.541-4.999 12.067-4.999s8.867 1.798 12.067 4.999c3.201 3.199 4.999 7.541 4.999 12.067v98.292c96.856-115.524 241.005-183.624 392.534-183.624 282.317 0 512 229.683 512 512 0 4.526-1.798 8.868-4.999 12.067-3.199 3.201-7.541 4.999-12.067 4.999zM512 925.866c141.095 0 275.329-63.284 365.734-170.666h-92.666c-4.526 0-8.868-1.798-12.067-4.999-3.201-3.199-4.999-7.541-4.999-12.067s1.798-8.868 4.999-12.067c3.199-3.201 7.541-4.999 12.067-4.999h136.532c2.241 0 4.461 0.442 6.531 1.298 2.071 0.858 3.953 2.116 5.536 3.701 1.585 1.583 2.843 3.465 3.701 5.536 0.856 2.071 1.298 4.291 1.298 6.531v136.532c0 4.526-1.798 8.867-4.999 12.067-3.199 3.201-7.541 4.999-12.067 4.999s-8.868-1.798-12.067-4.999c-3.201-3.2-4.999-7.541-4.999-12.067v-98.292c-96.856 115.526-241.005 183.626-392.534 183.626-282.317 0-512-229.683-512-512 0-4.526 1.798-8.868 4.999-12.067 3.2-3.201 7.541-4.999 12.067-4.999s8.867 1.798 12.067 4.999c3.201 3.199 4.999 7.541 4.999 12.067 0.002 263.5 214.368 477.866 477.868 477.866z" />
<glyph unicode="&#xe91f;" glyph-name="experienced" horiz-adv-x="896" d="M443.725 106.683h-273.062c-56.455 0-102.398 45.944-102.398 102.4v580.254c0 56.455 45.943 102.398 102.398 102.398h409.592c56.456 0 102.397-45.943 102.397-102.398v-172.712c0-9.052 3.597-17.733 9.997-24.136 6.403-6.4 15.084-9.997 24.136-9.997s17.736 3.597 24.136 9.997c6.403 6.403 9.997 15.084 9.997 24.136v172.712c0 94.104-76.559 170.663-170.662 170.663h-409.592c-94.104 0-170.663-76.56-170.663-170.663v-580.254c0-94.106 76.56-170.665 170.663-170.665h273.062c9.052 0 17.733 3.597 24.136 9.997 6.4 6.403 9.997 15.084 9.997 24.136 0 9.055-3.597 17.736-9.997 24.136-6.403 6.403-15.084 9.997-24.136 9.997zM204.796 686.938h238.929c9.052 0 17.733 3.597 24.136 9.999 6.4 6.4 9.997 15.082 9.997 24.135s-3.597 17.734-9.997 24.135c-6.403 6.401-15.084 9.997-24.136 9.997h-238.929c-9.053 0-17.734-3.596-24.135-9.997s-9.997-15.083-9.997-24.135c0-9.053 3.596-17.735 9.997-24.135 6.401-6.403 15.083-9.999 24.135-9.999zM524.278 550.408c0 9.052-3.597 17.736-9.997 24.136-6.403 6.403-15.084 9.997-24.136 9.997h-285.349c-9.053 0-17.734-3.594-24.135-9.997-6.401-6.4-9.997-15.084-9.997-24.136s3.596-17.733 9.997-24.136c6.401-6.4 15.083-9.997 24.135-9.997h285.349c9.052 0 17.733 3.597 24.136 9.997 6.4 6.403 9.997 15.084 9.997 24.136zM427.341 413.878c0 9.052-3.597 17.733-9.997 24.136-6.403 6.4-15.084 9.997-24.136 9.997h-188.412c-9.053 0-17.734-3.597-24.135-9.997-6.401-6.403-9.997-15.084-9.997-24.136s3.596-17.733 9.997-24.136c6.401-6.4 15.083-9.997 24.135-9.997h188.412c9.052 0 17.733 3.597 24.136 9.997 6.4 6.403 9.997 15.084 9.997 24.136zM204.796 311.48c-9.053 0-17.734-3.597-24.135-9.997-6.401-6.403-9.997-15.084-9.997-24.136s3.596-17.736 9.997-24.136c6.401-6.403 15.083-9.997 24.135-9.997h172.712c9.052 0 17.733 3.594 24.136 9.997 6.4 6.4 9.997 15.084 9.997 24.136s-3.597 17.733-9.997 24.136c-6.403 6.4-15.084 9.997-24.136 9.997h-172.712zM887.45 311.48c0 112.945-91.853 204.795-204.797 204.795s-204.795-91.85-204.795-204.795c0-60.449 26.486-114.685 68.265-152.233v-171.924c0-18.911 10.412-36.25 27.1-45.192 16.794-9.011 36.864-8.023 52.703 2.524l56.727 38.093 56.865-38.159c7.741-5.082 16.709-7.98 25.961-8.389 9.249-0.407 18.44 1.69 26.598 6.070 8.156 4.378 14.981 10.88 19.753 18.816s7.311 17.011 7.352 26.271v171.927c21.46 19.133 38.633 42.588 50.399 68.82 11.763 26.235 17.853 54.625 17.869 83.377zM750.917 19.167l-49.219 33.042c-5.624 3.786-12.25 5.811-19.028 5.811s-13.407-2.025-19.028-5.811l-49.221-33.042v99.464c21.402-7.611 44.306-11.948 68.268-11.948 23.959 0 46.863 4.37 68.265 11.948l-0.036-99.464zM682.652 174.95c-75.297 0-136.53 61.233-136.53 136.53s61.233 136.53 136.53 136.53c75.297 0 136.53-61.233 136.53-136.53s-61.233-136.53-136.53-136.53z" />
<glyph unicode="&#xe920;" glyph-name="fast-shipping" horiz-adv-x="1331" d="M496.724 960c-44.524-0.139-87.181-17.887-118.664-49.369s-49.231-74.141-49.37-118.664v-687.934c0.138-44.524 17.887-87.181 49.37-118.664s74.14-49.231 118.664-49.37h641.405c44.49 0.184 87.104 17.953 118.548 49.431s49.17 74.109 49.308 118.602v687.934c-0.138 44.492-17.864 87.125-49.308 118.602s-74.058 49.246-118.548 49.431h-641.405zM496.724 866.941h157.673v-465.471c-0.351-43.894 54.431-63.736 82.524-29.847l80.768 96.745 80.241-96.745c6.1-7.45 14.362-12.82 23.644-15.378 9.28-2.555 19.126-2.168 28.18 1.106 9.052 3.274 16.865 9.275 22.364 17.178s8.412 17.316 8.335 26.941v465.296h157.676c9.861 0.142 19.651-1.696 28.79-5.404s17.441-9.213 24.415-16.187c6.976-6.974 12.48-15.277 16.189-24.415 3.707-9.139 5.545-18.929 5.404-28.791v-687.934c0.164-9.876-1.656-19.686-5.353-28.846-3.699-9.16-9.198-17.482-16.177-24.476-6.976-6.991-15.286-12.513-24.438-16.233-9.149-3.72-18.954-5.56-28.831-5.42h-641.405c-9.892-0.166-19.715 1.659-28.887 5.368s-17.503 9.226-24.499 16.22c-6.994 6.996-12.511 15.327-16.22 24.499s-5.535 18.995-5.368 28.887v687.934c-0.166 9.892 1.659 19.716 5.368 28.887s9.226 17.503 16.22 24.498c6.996 6.995 15.327 12.512 24.499 16.221s18.995 5.535 28.887 5.368zM747.456 866.941h139.94v-337.118l-34.063 40.909c-4.365 5.235-9.83 9.449-16.005 12.339s-12.908 4.388-19.725 4.388c-6.817 0-13.553-1.498-19.727-4.388-6.172-2.89-11.638-7.104-16.005-12.339l-34.414-41.085v337.295zM46.354 826.557c-12.28-0.046-24.043-4.945-32.726-13.628s-13.582-20.446-13.628-32.726c0-12.31 4.878-24.119 13.566-32.839s20.478-13.644 32.788-13.69h185.942c6.11 0 12.161 1.203 17.806 3.542s10.775 5.766 15.096 10.086c4.321 4.321 7.747 9.45 10.086 15.095 2.337 5.645 3.54 11.696 3.54 17.806-0.046 12.31-4.969 24.1-13.688 32.788-8.722 8.688-20.53 13.566-32.84 13.566h-185.942zM137.833 594.26c-12.28-0.092-24.024-5.036-32.675-13.752-8.65-8.714-13.504-20.498-13.504-32.778 0.046-12.247 4.92-23.985 13.565-32.663s20.364-13.596 32.613-13.691h94.463c12.31 0 24.119 4.879 32.84 13.568 8.719 8.686 13.642 20.477 13.688 32.786 0.023 6.126-1.162 12.196-3.489 17.861-2.33 5.665-5.752 10.816-10.076 15.155s-9.46 7.782-15.117 10.132c-5.657 2.348-11.721 3.558-17.847 3.558l-94.463-0.177zM46.354 362.14c-12.31-0.046-24.1-4.969-32.788-13.691-8.688-8.719-13.566-20.529-13.566-32.84 0.046-12.278 4.945-24.041 13.628-32.724s20.447-13.583 32.726-13.629h185.942c12.31 0 24.119 4.879 32.84 13.568 8.719 8.686 13.642 20.477 13.688 32.786 0 12.342-4.902 24.177-13.627 32.901-8.727 8.727-20.561 13.629-32.902 13.629h-185.942zM139.237 129.669c-12.249-0.092-23.968-5.012-32.613-13.691s-13.52-20.416-13.565-32.663c-0.001-12.28 4.854-24.064 13.504-32.778 8.65-8.717 20.395-13.66 32.675-13.752h93.059c12.34 0 24.175 4.902 32.902 13.629 8.724 8.724 13.627 20.559 13.627 32.901-0.046 12.308-4.969 24.1-13.688 32.786-8.722 8.689-20.53 13.568-32.84 13.568h-93.059z" />
<glyph unicode="&#xe921;" glyph-name="fb" horiz-adv-x="652" d="M420.764 585.384h205.859v-173.694h-205.859v-405.286h-205.859v405.286h-205.86v173.694h205.86v72.662c0 68.841 25.664 155.803 76.717 203.338 51.053 47.65 114.801 71.389 191.175 71.389h143.826v-173.694h-144.101c-34.173 0-61.758-23.276-61.758-52.051v-121.644z" />
<glyph unicode="&#xe922;" glyph-name="fb-1" horiz-adv-x="964" d="M963.686 430.529c0 266.16-215.727 481.882-481.844 481.882-266.12 0-481.842-215.723-481.842-481.882 0-240.457 176.208-439.8 406.548-475.941v336.679h-122.317v139.302h122.317v106.135c0 120.792 71.961 187.492 181.991 187.492 52.726 0 107.859-9.397 107.859-9.397v-118.583h-60.717c-59.832 0-78.505-37.145-78.505-75.254v-90.433h133.644l-21.365-139.304h-112.279v-336.673c230.34 36.141 406.546 235.478 406.546 475.977h-0.036z" />
<glyph unicode="&#xe923;" glyph-name="file-edit" horiz-adv-x="910" d="M291.377 23.711h-132.685c-43.752 0-79.346 35.595-79.346 79.349v698.247c0 43.752 35.595 79.346 79.346 79.346h487.759c43.753 0 79.349-35.595 79.349-79.346v-243.99c0-21.911 17.761-39.673 39.674-39.673 21.908 0 39.669 17.762 39.669 39.673v243.99c0 87.503-71.185 158.693-158.692 158.693h-487.759c-87.503 0-158.693-71.19-158.693-158.693v-698.247c0-87.501 71.19-158.692 158.693-158.692h132.685c21.911 0 39.673 17.761 39.673 39.674 0 21.908-17.762 39.669-39.673 39.669zM875.418 385.587c-46.41 46.407-121.913 46.409-168.289 0.034l-217.812-217.333c-4.625-4.614-8.038-10.303-9.938-16.555l-47.435-156.16c-2.065-6.798-2.266-14.023-0.584-20.929 1.682-6.901 5.187-13.221 10.148-18.307s11.196-8.744 18.054-10.598c6.859-1.849 14.088-1.826 20.934 0.068l160.13 44.356c6.593 1.826 12.595 5.325 17.436 10.155l217.355 216.946c46.404 46.41 46.404 121.913 0 168.323zM609.394 63.846l-80.563-22.318 23.576 77.619 146.968 146.642 56.115-56.115-146.096-145.829zM819.342 273.397l-7.691-7.669-56.104 56.104 7.657 7.646c15.468 15.468 40.641 15.468 56.11 0s15.468-40.636 0.028-56.081z" />
<glyph unicode="&#xe924;" glyph-name="fill" horiz-adv-x="922" d="M550.344-12.8c-8.305 0-16.389 2.693-23.040 7.68l-153.598 115.2c-4.769 3.574-8.64 8.212-11.306 13.542-2.666 5.335-4.054 11.213-4.054 17.178v215.808l-269.414 303.089c-19.134 21.585-31.627 48.238-35.978 76.753s-0.374 57.68 11.453 83.989c11.826 26.309 30.999 48.644 55.214 64.318s52.441 24.023 81.286 24.041h545.278c28.846-0.034 57.062-8.396 81.27-24.081 24.202-15.685 43.366-38.026 55.178-64.338s15.78-55.476 11.418-83.987c-4.362-28.511-16.865-55.156-36.004-76.733l-269.302-303.050v-331.008c0-10.189-4.045-19.953-11.244-27.156-7.204-7.199-16.973-11.244-27.156-11.244zM435.145 160l76.8-57.6v268.8c0.008 9.4 3.465 18.473 9.716 25.498l279.091 313.994c9.303 10.519 15.38 23.499 17.49 37.384s0.164 28.084-5.596 40.892c-5.76 12.808-15.099 23.682-26.885 31.314-11.791 7.632-25.533 11.7-39.578 11.715h-545.278c-14.037-0.021-27.77-4.091-39.551-11.722s-21.112-18.498-26.872-31.299c-5.76-12.801-7.705-26.992-5.602-40.87s8.165-26.856 17.459-37.375l279.13-314.033c6.237-7.030 9.68-16.102 9.677-25.498v-211.2zM858.045 659.658c19.139 21.577 31.642 48.222 36.004 76.733s0.394 57.675-11.418 83.987c-11.812 26.312-30.976 48.653-55.178 64.338-24.207 15.685-52.424 24.047-81.27 24.081h-545.278c-28.845-0.018-57.071-8.366-81.286-24.041s-43.387-38.009-55.214-64.318c-11.827-26.309-15.803-55.474-11.453-83.989s16.844-55.167 35.978-76.753l269.414-303.089v-215.808c0-5.965 1.388-11.843 4.054-17.178 2.666-5.33 6.537-9.969 11.306-13.542l153.598-115.2c6.651-4.987 14.735-7.68 23.040-7.68 10.184 0 19.953 4.045 27.156 11.244 7.199 7.204 11.244 16.968 11.244 27.156v331.008l269.302 303.050zM348.106 352.712l-266.828 300.182c-20.442 23.062-33.799 51.546-38.447 82.011s-0.399 61.624 12.236 89.732c12.635 28.108 33.119 51.97 58.989 68.716s56.027 25.665 86.844 25.685h545.285c30.817-0.036 60.979-8.97 86.835-25.728 25.861-16.758 46.331-40.626 58.952-68.738 12.626-28.111 16.86-59.269 12.201-89.73s-18.017-58.927-38.467-81.98l-266.721-300.151v-327.112c0-12.902-5.125-25.272-14.244-34.396-9.124-9.124-21.494-14.249-34.396-14.249-10.522 0-20.762 3.415-29.184 9.733l-153.598 115.2c-6.041 4.526-10.944 10.404-14.321 17.157s-5.135 14.203-5.135 21.755v211.912zM425.468 396.698l-279.13 314.033c-9.294 10.52-15.356 23.497-17.459 37.375s-0.158 28.069 5.602 40.87c5.76 12.801 15.090 23.668 26.872 31.299s25.514 11.701 39.551 11.722h545.278c14.044-0.015 27.786-4.083 39.578-11.715 11.786-7.633 21.125-18.506 26.885-31.314s7.706-27.007 5.596-40.892c-2.109-13.885-8.187-26.866-17.49-37.384l-279.091-313.994c-6.252-7.025-9.708-16.097-9.716-25.498v-268.8l-76.8 57.6v211.2c0.003 9.395-3.44 18.468-9.677 25.498zM154.013 717.51l279.109-314.013c7.899-8.904 12.266-20.398 12.263-32.297v-206.080l56.32-42.24v248.32c0.010 11.904 4.387 23.404 12.301 32.297l279.076 313.98c7.997 9.041 13.22 20.203 15.032 32.137 1.818 11.936 0.148 24.142-4.808 35.153-4.951 11.011-12.979 20.358-23.112 26.919-10.132 6.56-21.944 10.057-34.017 10.071h-545.265zM200.913 821.757c0 0-23.867-3.518-33.993-10.077-10.128-6.56-18.149-15.902-23.1-26.907s-6.624-23.203-4.816-35.134c1.807-11.926 7.025-23.089 15.009-32.13z" />
<glyph unicode="&#xe925;" glyph-name="filter" horiz-adv-x="1707" d="M0 874.667c0 22.632 8.99 44.337 24.994 60.34s37.708 24.994 60.34 24.994h1536c22.63 0 44.339-8.99 60.339-24.994s24.994-37.708 24.994-60.34c0-22.632-8.994-44.337-24.994-60.34s-37.709-24.993-60.339-24.993h-1536c-22.632 0-44.337 8.991-60.34 24.993s-24.994 37.708-24.994 60.34zM256 448c0 22.632 8.991 44.337 24.993 60.34s37.708 24.993 60.34 24.993h1024c22.63 0 44.339-8.991 60.339-24.993s24.994-37.708 24.994-60.34c0-22.632-8.994-44.337-24.994-60.34s-37.709-24.993-60.339-24.993h-1024c-22.632 0-44.337 8.991-60.34 24.993s-24.993 37.708-24.993 60.34zM682.667 106.667c-22.632 0-44.337-8.994-60.34-24.994s-24.993-37.709-24.993-60.339c0-22.63 8.991-44.339 24.993-60.339s37.708-24.994 60.34-24.994h341.333c22.63 0 44.339 8.994 60.339 24.994s24.994 37.709 24.994 60.339c0 22.63-8.994 44.339-24.994 60.339s-37.709 24.994-60.339 24.994h-341.333z" />
<glyph unicode="&#xe926;" glyph-name="flash" horiz-adv-x="717" d="M685.793 583.008c-2.444 5.089-6.277 9.383-11.056 12.39s-10.312 4.601-15.957 4.601h-191.485l158.321 316.583c2.28 4.573 3.359 9.652 3.133 14.757s-1.748 10.069-4.424 14.423c-5.506 8.848-15.172 14.238-25.545 14.238h-360.002c-6.101-0.006-12.056-1.87-17.070-5.346s-8.85-8.397-10.996-14.108l-180.001-480.002c-1.7-4.54-2.278-9.421-1.687-14.23s2.336-9.404 5.085-13.397c2.765-3.983 6.452-7.24 10.747-9.489s9.072-3.427 13.921-3.43h201.563l-110.685-446.734c-1.652-6.646-0.984-13.657 1.893-19.869s7.791-11.254 13.927-14.292c6.136-3.028 13.121-3.871 19.801-2.389s12.655 5.195 16.937 10.534l480.002 604.003c3.536 4.413 5.748 9.738 6.383 15.36 0.631 5.622-0.341 11.305-2.806 16.398z" />
<glyph unicode="&#xe927;" glyph-name="gift" horiz-adv-x="967" d="M170.42 804.461c0 124.022 138.224 198.016 241.408 129.174l71.769-47.883 71.769 47.883c103.185 68.843 241.408-5.151 241.408-129.174v-29.204h46.461c64.899 0 117.51-52.616 117.51-117.514v-86.047c0-22.090-17.903-39.997-39.993-39.997h-16.759v-435.71c0-0.159 0-0.319 0-0.472-0.256-88.144-71.788-159.516-159.989-159.516h-520.816c-88.36 0-159.99 71.629-159.99 159.989v435.708h-16.757c-22.090 0-39.997 17.907-39.997 39.997v86.046c0 64.903 52.613 117.517 117.516 117.517h46.459v29.204zM250.414 775.257h193.186v41.015l-76.169 50.819c-49.998 33.358-117.016-2.48-117.016-62.63v-29.204zM523.595 816.272v-41.015h193.183v29.204c0 60.15-67.015 95.988-117.015 62.63l-76.168-50.819zM123.961 695.262c-20.723 0-37.522-16.798-37.522-37.522v-46.049h239.76l0.001 83.57h-202.24zM326.201 531.697v-364.193c0-14.222 7.555-27.381 19.843-34.549s27.457-7.27 39.84-0.267l97.713 55.245 97.711-55.245c12.385-7.003 27.557-6.901 39.845 0.267 12.282 7.168 19.837 20.326 19.837 34.549v364.195h183.012v-434.152c0-0.137-0.006-0.273-0.006-0.41v-1.149c0-44.18-35.812-79.991-79.991-79.991h-520.816c-44.18 0-79.995 35.812-79.995 79.991v435.708h183.008zM880.754 611.693v46.049c0 20.72-16.799 37.519-37.518 37.519h-202.246v-83.569h239.764zM560.998 695.262h-154.801v-459.196l57.715 32.631c12.215 6.906 27.156 6.906 39.371 0l57.715-32.631v459.196z" />
<glyph unicode="&#xe928;" glyph-name="great-value" horiz-adv-x="922" d="M891.261 428.749c4.841-4.841 12.908-3.226 17.748 1.613 3.226 4.841 3.226 12.91-1.615 16.136-91.968 69.381-221.048 59.699-301.722-24.202-69.381 25.815-150.057 9.682-214.595-27.43 32.269 111.332 75.832 229.117 177.482 292.042 38.725-19.361 83.904-27.428 125.855-41.951 19.361-6.454 41.951-16.133 61.312-8.067 16.136 6.454 27.43 24.202 20.977 45.179 0 4.838-1.615 9.679-4.841 14.52 27.428 3.228 43.564 12.908 46.792 30.657 3.226 12.908 0 19.362-22.589 114.558-4.841 20.975-11.295 41.951-32.271 53.245-17.748 8.068-35.497 4.84-53.245 0-141.988-40.337-119.398-35.497-156.508-43.564-32.269-6.454-67.766-14.522-88.742-35.497-62.927-61.313-124.239-125.853-185.551-188.78-91.97-93.581-185.552-190.392-251.706-306.563-14.521-24.202-25.816-50.020-27.429-79.060-3.227-29.043 6.454-59.702 25.816-82.289 50.018-61.315 137.147-66.153 206.527-77.448 70.994-11.295 141.988-33.884 212.982-37.112 67.766-4.838 138.76 8.069 192.005 50.020 8.067-24.202 29.043-50.020 40.338-64.54 29.043-33.884 66.153-58.086 106.491-75.835 4.841-3.226 32.269-9.679 51.633-14.52 8.067-3.228 11.292-4.841 16.133-3.228 3.228 0 1.615 0 1.615 1.613 8.067 4.841 6.454 17.748-1.615 20.977-8.067 3.228-14.52 6.454-12.908 4.841-9.682 6.454-16.136 8.067-38.723 19.361-69.381 40.338-124.239 104.878-153.283 179.098-1.613 6.454-9.682 9.682-16.136 6.454-6.454-1.613-9.682-9.679-6.454-16.133s4.841-12.91 8.067-19.364c-62.925-54.858-151.667-56.471-200.072-51.63-77.448 6.454-153.283 33.882-250.093 48.404-33.883 4.841-64.54 9.679-93.583 22.589-29.043 12.908-62.926 41.951-64.54 82.286-1.613 24.205 11.294 48.407 24.202 70.994 64.54 112.945 158.122 209.756 248.479 301.724 59.699 61.315 122.624 127.466 183.939 188.78 20.974 20.975 74.22 25.816 106.491 35.497l129.078 37.111c35.497 9.681 46.792 6.454 56.474-35.497 24.202-96.81 24.202-96.81 22.589-103.264-3.228-9.681-20.977-12.908-30.656-12.908-27.43-1.614-58.086-3.227-72.609 20.975 11.295 1.613 22.589 3.227 33.884 8.067 17.748 6.454 22.589 19.362 16.136 37.111-8.069 22.589-16.136 33.883-53.245 46.791-4.841 1.613-9.682 0-12.908-3.227-8.069-8.067-19.364-14.521-29.043-17.748-6.454-1.613-9.682-8.067-8.069-14.521 1.615-6.454 8.069-9.681 14.523-8.068 12.908 3.227 24.202 9.681 33.884 17.748 24.202-8.067 25.815-14.521 32.269-29.043 0-1.613 1.613-4.84 1.613-4.84s-1.613-1.614-4.841-1.614c-8.067-3.227-17.748-4.84-27.428-6.454 9.679 14.521-11.295 27.429-19.361 14.521-16.136-24.202-1.615-59.699 24.202-72.607 14.52-8.068 29.043-9.681 45.176-11.293 1.615 0 1.615-1.615 3.228-1.615 6.454-3.226 9.679-11.295 8.067-17.748s-9.679-12.908-16.136-11.295c-8.067 0-16.133 6.456-25.815 11.295-22.589 12.908-50.017 14.523-75.835 19.364-50.017 8.067-54.858 17.747-74.22 32.269-11.295 9.681-19.361 16.135-19.361 24.202 0 6.454-4.841 12.908-11.295 12.908s-11.295-4.841-12.908-11.294c0-3.227-0.003-6.454 1.613-8.068 0-14.521 11.295-27.429 20.974-37.111 1.615-1.613 4.841-3.227 6.454-4.84-109.716-72.607-150.054-200.074-185.551-324.314v-3.226c-19.361-16.136-38.723-35.497-51.633-61.315-3.226-6.454 0-12.908 4.841-16.133 6.454-3.228 12.908 0 16.136 4.841 41.951 79.060 164.577 125.852 251.704 103.263 48.407-11.295 88.742-45.179 104.878-87.13 1.613-6.454 9.682-9.679 16.136-6.454 6.454 1.613 9.679 9.682 6.454 16.136-14.523 35.497-41.951 66.153-79.060 85.514 75.832 70.994 185.551 74.222 262.999 16.136zM386.237 893.436c-4.841-4.841-3.228-12.908 1.613-17.748 43.564-33.883 43.564-37.111 50.017-37.111 11.295 0 16.136 14.522 8.069 20.975l-43.566 35.497c-3.226 4.84-11.292 3.227-16.133-1.613zM478.205 869.233c6.454 1.613 9.682 8.067 8.069 14.521l-19.364 67.767c-1.613 6.454-8.067 9.681-14.52 8.067s-9.682-8.067-8.067-14.521l19.361-67.767c0-6.454 8.067-11.294 14.52-8.067zM550.812 895.049l3.228 37.111c0 6.454-4.841 12.908-11.295 12.908s-12.908-4.84-12.908-11.295l-3.228-37.11c0-6.454 4.841-12.908 11.295-12.908s12.908 4.84 12.908 11.294z" />
<glyph unicode="&#xe929;" glyph-name="grid" d="M153.598 960h153.599c40.737 0 79.805-16.183 108.61-44.988s44.988-67.874 44.988-108.61v-153.599c0-40.737-16.183-79.805-44.988-108.61s-67.873-44.988-108.61-44.988h-153.599c-40.736 0-79.805 16.183-108.61 44.988s-44.988 67.873-44.988 108.61v153.599c0 40.736 16.183 79.805 44.988 108.61s67.874 44.988 108.61 44.988zM307.196 601.598c6.724 0 13.383 1.325 19.596 3.898s11.857 6.345 16.612 11.1c4.755 4.755 8.526 10.4 11.1 16.612s3.898 12.872 3.898 19.596v153.599c-0.005 13.577-5.402 26.596-15.005 36.195s-22.624 14.991-36.201 14.991h-153.599c-13.577 0-26.598-5.392-36.201-14.991s-15-22.619-15.005-36.195v-153.599c0-6.724 1.325-13.383 3.899-19.596s6.344-11.857 11.099-16.612c4.755-4.755 10.4-8.526 16.613-11.1s12.871-3.898 19.595-3.898h153.599zM307.196 396.794h-153.599c-40.736 0-79.805-16.183-108.61-44.988s-44.988-67.873-44.988-108.61v-153.596c0-40.741 16.183-79.806 44.988-108.61 28.805-28.811 67.874-44.99 108.61-44.99h153.599c40.737 0 79.805 16.179 108.61 44.99 28.805 28.804 44.988 67.869 44.988 108.61v153.596c0 40.737-16.183 79.805-44.988 108.61s-67.873 44.988-108.61 44.988zM307.196 38.415c13.577 0 26.598 5.391 36.201 14.987s15 22.616 15.005 36.198v153.596c0 6.724-1.325 13.383-3.898 19.596s-6.345 11.857-11.1 16.612c-4.755 4.755-10.4 8.526-16.612 11.1s-12.872 3.898-19.596 3.898h-153.599c-13.58 0-26.605-5.395-36.208-14.998s-14.998-22.627-14.998-36.208v-153.596c0.005-13.583 5.402-26.602 15.005-36.198s22.624-14.987 36.201-14.987h153.599zM870.385 396.794h-153.601c-40.737 0-79.805-16.183-108.611-44.988s-44.987-67.873-44.987-108.61v-153.596c0-40.741 16.182-79.806 44.987-108.61 28.806-28.811 67.874-44.99 108.611-44.99h153.601c40.733 0 79.799 16.179 108.61 44.99 28.804 28.804 44.983 67.869 44.983 108.61v153.596c0 40.737-16.179 79.805-44.983 108.61-28.811 28.805-67.877 44.988-108.61 44.988zM870.385 38.415c13.575 0 26.595 5.391 36.198 14.987s15.002 22.616 15.002 36.198v153.596c0 13.58-5.391 26.605-14.994 36.208s-22.63 14.998-36.206 14.998h-153.601c-13.578-0.005-26.597-5.402-36.195-15.005s-14.991-22.624-14.991-36.201v-153.596c0.005-13.575 5.4-26.595 14.998-36.191s22.615-14.994 36.189-14.994h153.601zM870.385 960h-153.601c-40.737 0-79.805-16.183-108.611-44.988s-44.987-67.874-44.987-108.61v-153.599c0-40.737 16.182-79.805 44.987-108.61s67.874-44.988 108.611-44.988h153.601c40.733 0 79.799 16.183 108.61 44.988 28.804 28.805 44.983 67.873 44.983 108.61v153.599c0 40.736-16.179 79.805-44.983 108.61-28.811 28.805-67.877 44.988-108.61 44.988zM870.385 601.598c6.722 0 13.378 1.325 19.595 3.898 6.21 2.574 11.856 6.345 16.611 11.1s8.528 10.4 11.103 16.612c2.567 6.213 3.891 12.872 3.891 19.596v153.599c0 13.577-5.398 26.596-15.002 36.195s-22.623 14.991-36.198 14.991h-153.601c-13.574-0.005-26.59-5.399-36.189-14.998s-14.993-22.614-14.998-36.188v-153.599c0-13.577 5.393-26.598 14.991-36.201s22.618-15 36.195-15.005h153.601z" />
<glyph unicode="&#xe92a;" glyph-name="grid-2" d="M384 768c0-106.039-85.961-192-192-192s-192 85.961-192 192c0 106.039 85.961 192 192 192s192-85.961 192-192zM1024 768c0-106.039-85.961-192-192-192s-192 85.961-192 192c0 106.039 85.961 192 192 192s192-85.961 192-192zM384 128c0-106.039-85.961-192-192-192s-192 85.961-192 192c0 106.039 85.961 192 192 192s192-85.961 192-192zM1024 128c0-106.039-85.961-192-192-192s-192 85.961-192 192c0 106.039 85.961 192 192 192s192-85.961 192-192z" />
<glyph unicode="&#xe92b;" glyph-name="grid-3" horiz-adv-x="1733" d="M384 768c0-106.039-85.961-192-192-192s-192 85.961-192 192c0 106.039 85.961 192 192 192s192-85.961 192-192zM1024 768c0-106.039-85.961-192-192-192s-192 85.961-192 192c0 106.039 85.961 192 192 192s192-85.961 192-192zM1664 768c0-106.039-85.961-192-192-192s-192 85.961-192 192c0 106.039 85.961 192 192 192s192-85.961 192-192zM384 128c0-106.039-85.961-192-192-192s-192 85.961-192 192c0 106.039 85.961 192 192 192s192-85.961 192-192zM1024 128c0-106.039-85.961-192-192-192s-192 85.961-192 192c0 106.039 85.961 192 192 192s192-85.961 192-192zM1664 128c0-106.039-85.961-192-192-192s-192 85.961-192 192c0 106.039 85.961 192 192 192s192-85.961 192-192z" />
<glyph unicode="&#xe92c;" glyph-name="grid-4" horiz-adv-x="2363" d="M384 768c0-106.039-85.961-192-192-192s-192 85.961-192 192c0 106.039 85.961 192 192 192s192-85.961 192-192zM1024 768c0-106.039-85.961-192-192-192s-192 85.961-192 192c0 106.039 85.961 192 192 192s192-85.961 192-192zM1664 768c0-106.039-85.961-192-192-192s-192 85.961-192 192c0 106.039 85.961 192 192 192s192-85.961 192-192zM2304 768c0-106.039-85.961-192-192-192s-192 85.961-192 192c0 106.039 85.961 192 192 192s192-85.961 192-192zM384 128c0-106.039-85.961-192-192-192s-192 85.961-192 192c0 106.039 85.961 192 192 192s192-85.961 192-192zM1024 128c0-106.039-85.961-192-192-192s-192 85.961-192 192c0 106.039 85.961 192 192 192s192-85.961 192-192zM1664 128c0-106.039-85.961-192-192-192s-192 85.961-192 192c0 106.039 85.961 192 192 192s192-85.961 192-192zM2304 128c0-106.039-85.961-192-192-192s-192 85.961-192 192c0 106.039 85.961 192 192 192s192-85.961 192-192z" />
<glyph unicode="&#xe92d;" glyph-name="health" horiz-adv-x="1165" d="M18.141-15.976h141.418c36.428 0 66.44 26.897 71.862 61.828 27.963-1.237 61.715 4.566 109.672-11.427l213.299-71.114c41.516-13.81 88.608-10.862 129.159 10.118l431.736 225.892c37.822 15.784 55.77 59.402 40.002 97.224-3.761 9.047-9.276 17.259-16.227 24.164-6.949 6.905-15.197 12.368-24.267 16.071s-18.785 5.576-28.582 5.508c-9.798-0.066-19.484-2.072-28.503-5.899l-251.292-111.237c3.518 42.331-29.407 74.369-67.437 75.372-0.104 0.004-0.193 0.062-0.297 0.062h-0.297c-0.418 0.006-0.807 0.122-1.227 0.122-0.219 0-0.398-0.116-0.614-0.122h-176.544l-134.941 62.98c-28.656 13.356-60.508 20.426-92.106 20.426h-101.531c-5.413 34.94-35.428 61.846-71.863 61.846h-141.42c-2.382 0.002-4.742-0.468-6.943-1.379s-4.201-2.247-5.886-3.931c-1.685-1.685-3.021-3.684-3.932-5.887-0.911-2.201-1.38-4.56-1.38-6.941v-425.534c-0.001-2.383 0.468-4.743 1.38-6.943 0.911-2.203 2.248-4.202 3.932-5.887s3.685-3.020 5.886-3.931c2.201-0.912 4.56-1.381 6.943-1.379zM409.716 330.686c145.727-67.359 138.734-66.381 146.261-66.381h182.407c17.924-0.663 32.326-15.354 32.326-33.431 0-18.496-15.049-33.553-33.553-33.553h-216.931c-2.381 0-4.741-0.47-6.943-1.379-2.201-0.912-4.2-2.249-5.885-3.933s-3.022-3.684-3.933-5.885c-0.912-2.203-1.379-4.562-1.379-6.943 0-2.383 0.468-4.743 1.379-6.943 0.912-2.203 2.247-4.202 3.931-5.887 1.687-1.685 3.686-3.022 5.887-3.931 2.201-0.912 4.56-1.381 6.943-1.379h218.455c10.748 0 21.795 4.132 31.668 8.487l301.682 133.542c19.382 8.061 41.695-1.1 49.772-20.48 8.070-19.362-1.124-41.701-21.914-50.453l-433.082-226.515c-31.029-16.067-67.815-18.884-100.944-7.883l-213.291 71.094c-54.708 18.255-94.192 12.067-120.025 13.306v265.573h100.404c26.52-0.038 52.714-5.847 76.764-17.025zM36.281 409.558h123.275c20.24 0 36.707-16.458 36.707-36.707v-315.838c0-20.249-16.467-36.705-36.707-36.705h-123.275v389.251zM668.393 372.601c3.116-2.179 6.75-3.259 10.381-3.259s7.264 1.1 10.391 3.259c12.985 9.090 318.141 224.176 318.141 397.154 0 104.223-84.805 189.029-189.036 189.029-53.545 0-104.169-22.748-139.549-61.793-35.565 39.045-86.259 61.793-139.698 61.793-104.237 0-189.044-84.806-189.044-189.029 0-172.978 305.411-388.083 318.416-397.154zM539.022 922.501c49.624 0 96.322-24.289 124.908-64.964 1.675-2.382 3.897-4.325 6.481-5.667s5.453-2.041 8.365-2.039h0.036c2.917 0.005 5.791 0.715 8.377 2.069 2.584 1.354 4.805 3.313 6.469 5.709 28.317 40.621 74.901 64.892 124.611 64.892 84.231 0 152.755-68.525 152.755-152.745 0-137.686-239.058-320.852-292.26-359.898-53.236 39.028-292.505 222.102-292.505 359.898 0 84.223 68.534 152.745 152.763 152.745z" />
<glyph unicode="&#xe92e;" glyph-name="heart" horiz-adv-x="1138" d="M563.619 92.251l-5.581-5.581-6.138 5.581c-265.068 240.515-440.292 399.555-440.292 560.828 0 111.608 83.706 195.314 195.314 195.314 85.937 0 169.643-55.804 199.219-131.697h103.794c29.577 75.893 113.283 131.697 199.219 131.697 111.61 0 195.317-83.706 195.317-195.314 0-161.273-175.223-320.313-440.851-560.828zM809.153 960c-97.098 0-190.288-45.201-251.116-116.072-60.826 70.871-154.018 116.072-251.117 116.072-171.876 0-306.921-134.487-306.921-306.921 0-210.38 189.733-382.817 477.123-643.419l80.915-73.66 80.915 73.66c287.391 260.602 477.121 433.039 477.121 643.419 0 172.434-135.043 306.921-306.921 306.921z" />
<glyph unicode="&#xe92f;" glyph-name="heart-full" horiz-adv-x="1152" d="M809.158 960c-97.101 0-190.294-45.201-251.12-116.072-60.826 70.871-154.019 116.072-251.117 116.072-171.876 0-306.921-134.487-306.921-306.921 0-210.38 189.733-382.813 477.123-643.415l80.916-73.664 80.915 73.664c287.389 260.602 477.123 433.035 477.123 643.415 0 172.434-135.046 306.921-306.918 306.921z" />
<glyph unicode="&#xe930;" glyph-name="help" d="M511.212 595.748h-51.067l50.606 51.052c8.404 8.535 14.111 19.354 16.407 31.109 2.299 11.753 1.085 23.926-3.487 34.995-8.978 22.069-29.1 36.014-53.594 36.406-18.017-0.018-35.29-7.182-48.031-19.92-12.744-12.739-19.912-30.011-19.935-48.028 0-4.526 1.8-8.868 5-12.068 3.203-3.203 7.542-5 12.070-5 4.526 0 8.868 1.797 12.068 5 3.2 3.2 5 7.542 5 12.068 0 18.639 15.173 33.812 34.376 33.812 13.857-0.222 19.576-10.668 21.402-15.139 3.295-8.090 3.569-20.004-5.548-29.187l-79.45-80.133c-2.365-2.396-3.968-5.437-4.611-8.742-0.643-3.302-0.294-6.723 1.001-9.828 1.295-3.108 3.476-5.763 6.275-7.634 2.798-1.869 6.088-2.872 9.452-2.88h92.032c4.526 0 8.868 1.797 12.068 4.997 3.203 3.203 5 7.544 5 12.070s-1.797 8.868-5 12.068c-3.2 3.203-7.542 5-12.068 5l0.033-0.018zM600.563 578.698c0-4.526 1.797-8.868 5-12.070 3.2-3.2 7.542-4.997 12.068-4.997 4.529 0 8.868 1.797 12.070 4.997 3.2 3.203 4.997 7.544 4.997 12.070v153.595c0.003 3.574-1.116 7.058-3.197 9.962-2.084 2.904-5.025 5.080-8.412 6.223s-7.045 1.193-10.463 0.145c-3.415-1.048-6.418-3.142-8.581-5.986l-83.412-109.712c-1.928-2.532-3.108-5.55-3.412-8.717-0.302-3.169 0.284-6.356 1.697-9.208 1.413-2.849 3.594-5.248 6.298-6.925 2.706-1.677 5.824-2.565 9.006-2.563h66.342v-26.813zM568.63 639.647l31.933 41.989v-41.989h-31.933zM807.905 537.905h-103.534c-4.526 0-8.868-1.797-12.068-5-3.203-3.2-5-7.542-5-12.068s1.797-8.868 5-12.068c3.2-3.203 7.542-5 12.068-5h71.447l-85.596-127.004c-1.298-1.856-2.212-3.953-2.693-6.167-0.479-2.214-0.512-4.503-0.097-6.73s1.267-4.349 2.509-6.244c1.244-1.892 2.852-3.52 4.728-4.787 1.879-1.267 3.991-2.145 6.213-2.588s4.508-0.438 6.728 0.013c2.222 0.451 4.329 1.339 6.203 2.614 1.871 1.275 3.474 2.908 4.708 4.808l103.534 153.613c1.733 2.568 2.732 5.558 2.893 8.65 0.164 3.092-0.52 6.17-1.974 8.904s-3.625 5.023-6.28 6.618c-2.652 1.595-5.691 2.437-8.788 2.437zM756.718 728.777c-4.006 2.104-8.684 2.53-13.005 1.186s-7.931-4.349-10.035-8.355l-172.867-329.056c-1.106-1.989-1.802-4.178-2.048-6.438-0.246-2.263-0.038-4.552 0.612-6.73 0.65-2.181 1.731-4.209 3.174-5.965 1.446-1.759 3.228-3.208 5.243-4.268 2.015-1.057 4.219-1.702 6.484-1.894 2.268-0.195 4.552 0.067 6.715 0.768s4.168 1.828 5.888 3.315c1.723 1.485 3.131 3.302 4.142 5.34l172.867 329.054c2.102 4.006 2.529 8.684 1.185 13.005s-4.349 7.931-8.356 10.037zM602.271 959.998c-94.295 0.275-185.938-31.198-260.168-89.351s-126.722-139.6-149.022-231.22l-17.87 17.869c-23.861 23.88-65.507 23.88-89.402 0l-20.584-20.582c-1.417-1.418-2.611-2.954-3.977-4.403-0.392-0.325-0.888-0.461-1.263-0.837-0.615-0.614-0.888-1.418-1.4-2.117-80.186-87.575-78.138-223.916 6.639-308.692l319.309-319.309c43.558-43.576 100.787-65.354 158.016-65.354s114.46 21.778 158.016 65.354l20.585 20.582c11.948 11.948 18.519 27.822 18.519 44.703s-6.572 32.753-18.519 44.7l-17.871 17.871c91.622 22.3 173.069 74.793 231.222 149.023 58.153 74.227 89.626 165.87 89.352 260.168 0 232.466-189.13 421.597-421.581 421.597zM697.014 46.090l-20.582-20.585c-73.838-73.838-193.946-73.82-267.763 0l-319.31 319.309c-67.948 67.948-73.188 175.017-16.061 249.211l112.461-112.461c1.582-1.592 3.462-2.854 5.533-3.715s4.292-1.306 6.535-1.306c2.243 0 4.464 0.445 6.534 1.306s3.951 2.122 5.533 3.715c1.586 1.582 2.845 3.464 3.704 5.535s1.301 4.291 1.301 6.531c0 2.243-0.442 4.462-1.301 6.533s-2.117 3.953-3.704 5.535l-113.708 113.708 13.757 13.757c5.496 5.496 12.801 8.517 20.567 8.517s15.071-3.021 20.567-8.517l106.368-106.35c5.443-5.463 8.499-12.859 8.499-20.567 0-7.711-3.057-15.107-8.499-20.567l-25.773-25.774c-14.544-14.572-22.712-34.319-22.712-54.907 0-20.59 8.168-40.335 22.712-54.909l182.132-182.134c26.099-26.112 66.276-29.578 96.266-10.668l114.9-114.9c1.582-1.592 3.461-2.854 5.532-3.715s4.293-1.306 6.536-1.306c2.243 0 4.462 0.445 6.533 1.306s3.953 2.122 5.535 3.715c1.585 1.582 2.844 3.464 3.702 5.535 0.86 2.071 1.3 4.291 1.3 6.531 0 2.243-0.44 4.462-1.3 6.533-0.858 2.071-2.117 3.953-3.702 5.535l-113.469 113.469 13.757 13.757c5.46 5.443 12.856 8.497 20.567 8.497s15.107-3.054 20.567-8.497l106.486-106.506c5.496-5.496 8.517-12.8 8.517-20.567 0-7.764-3.021-15.089-8.517-20.582zM674.537 157.97l-59.876 59.876c-11.868 11.83-27.942 18.47-44.7 18.47s-32.832-6.641-44.703-18.47l-25.772-25.774c-8.166-8.151-19.236-12.731-30.774-12.731-11.54 0-22.607 4.58-30.774 12.731l-182.134 182.134c-8.148 8.169-12.724 19.236-12.724 30.774s4.576 22.605 12.724 30.774l25.774 25.772c11.837 11.866 18.486 27.942 18.486 44.703s-6.648 32.837-18.486 44.7l-59.756 59.74c16.54 88.735 63.665 168.866 133.175 226.451s157.007 88.981 247.273 88.727c213.64 0 387.443-173.804 387.443-387.444 0.253-90.266-31.145-177.761-88.73-247.27s-137.713-116.618-226.447-133.161z" />
<glyph unicode="&#xe931;" glyph-name="home" d="M855.040-64h-686.080c-92.16 0-168.96 77.824-168.96 171.008v373.76c0 47.104 20.48 93.184 56.32 124.928l343.040 311.296c66.56 57.344 158.72 57.344 225.28 0l343.040-311.296c35.84-30.72 56.32-77.824 56.32-124.928v-373.76c-5.12-98.304-76.8-171.008-168.96-171.008zM512 854.528c-15.36 0-30.72-5.12-46.080-15.36l-343.040-311.296c-15.36-10.24-20.48-30.72-20.48-52.224v-373.76c0-35.84 30.72-67.584 66.56-67.584h680.96c35.84 0 66.56 30.72 66.56 67.584v373.76c0 20.48-10.24 35.84-20.48 52.224l-343.040 311.296c-10.24 10.24-25.6 15.36-40.96 15.36z" />
<glyph unicode="&#xe932;" glyph-name="instagram" d="M345.865 920.458h386.372c147.191 0 266.778-119.591 266.778-266.781v-386.373c0-70.754-28.1-138.611-78.131-188.644-50.031-50.031-117.891-78.14-188.646-78.14h-386.372c-147.19 0-266.781 119.595-266.781 266.784v386.373c0 70.755 28.107 138.611 78.138 188.643s117.888 78.138 188.643 78.138zM336.665 828.465c-43.917 0-86.035-17.446-117.088-48.499s-48.499-73.172-48.499-117.089v-404.771c0-91.534 74.055-165.587 165.588-165.587h404.772c43.917 0 86.035 17.444 117.085 48.498 31.061 31.054 48.503 73.172 48.503 117.088v404.771c0 91.534-74.055 165.588-165.588 165.588h-404.772zM780.534 759.47c15.249 0 29.873-6.058 40.656-16.841s16.84-25.407 16.84-40.655c0-15.249-6.058-29.873-16.84-40.656s-25.407-16.841-40.656-16.841c-15.249 0-29.873 6.058-40.656 16.841s-16.84 25.407-16.84 40.656c0 15.248 6.058 29.873 16.84 40.655s25.407 16.841 40.656 16.841zM539.051 690.475c60.995 0 119.493-24.23 162.623-67.36s67.36-101.628 67.36-162.623c0-60.995-24.23-119.493-67.36-162.623s-101.628-67.361-162.623-67.361c-60.995 0-119.492 24.23-162.623 67.361s-67.36 101.628-67.36 162.623c0 60.995 24.23 119.492 67.36 162.623s101.628 67.36 162.623 67.36zM539.051 598.481c-36.597 0-71.695-14.538-97.574-40.416s-40.416-60.977-40.416-97.574c0-36.598 14.538-71.696 40.416-97.574s60.977-40.416 97.574-40.416c36.598 0 71.696 14.538 97.574 40.416s40.416 60.977 40.416 97.574c0 36.597-14.538 71.695-40.416 97.574s-60.977 40.416-97.574 40.416z" />
<glyph unicode="&#xe933;" glyph-name="iron" horiz-adv-x="1593" d="M794.030 125.811c58.205 0 105.481 48.802 105.481 108.277s-47.531 108.531-105.481 108.531c-57.952 0-105.735-48.8-105.735-108.531s47.53-108.277 105.735-108.277zM489.279 566.035h1025.582l72.442-582.306 5.586-44.48h-1592.889v39.65c0 142.845 20.334 287.214 90.993 397.777 72.693 113.615 195.457 189.358 398.285 189.358zM1447.253 486.733h-957.975c-172.582 0-275.012-61.255-333.98-153.264-54.647-85.148-74.218-198.253-77.522-314.664h1427.674l-58.197 468.183v-0.255zM313.393 880.699c-21.35 0-38.634 17.792-38.634 39.651s17.284 39.651 38.634 39.651h1123.689c20.082 0 36.602-15.759 38.377-36.092l112.094-940.433c2.537-21.604-12.459-41.43-33.553-44.225-21.094-2.542-40.414 12.709-42.951 34.568l-108.282 906.881h-1089.373z" />
<glyph unicode="&#xe934;" glyph-name="lightning" horiz-adv-x="737" d="M737.28 550.4h-301.613l67.023 409.6-502.69-614.4h301.615l-67.026-409.6 502.691 614.4z" />
<glyph unicode="&#xe935;" glyph-name="list" horiz-adv-x="1497" d="M384 768c0-106.039-85.961-192-192-192s-192 85.961-192 192c0 106.039 85.961 192 192 192s192-85.961 192-192zM384 128c0-106.039-85.961-192-192-192s-192 85.961-192 192c0 106.039 85.961 192 192 192s192-85.961 192-192zM551.385 802.462h945.231v-78.769h-945.231v78.769zM551.385 172.308h945.231v-78.769h-945.231v78.769z" />
<glyph unicode="&#xe936;" glyph-name="lock" d="M800 584h-72.074v164.46c0 116.644-96.897 211.54-216 211.54s-216-94.896-216-211.54v-164.46h-71.926c-66.168 0-120-53.832-120-120v-408.002c0-66.165 53.832-119.998 120-119.998h576c66.165 0 119.998 53.833 119.998 119.998v408.002c0 66.168-53.833 120-119.998 120zM375.926 748.46c0 72.532 61.010 131.54 136 131.54s136-59.008 136-131.54v-164.46h-272v164.46zM840.002 55.998c0-22.053-17.949-39.995-40.002-39.995h-576c-22.056 0-40 17.942-40 39.995v408.002c0 22.056 17.944 40 40 40h576c22.053 0 40.002-17.943 40.002-40v-408.002zM512 388c-40.87 0-74-33.13-74-74 0-26.096 13.52-49.020 33.926-62.196v-87.803c0-22.089 17.908-40.002 40-40.002 22.090 0 40 17.913 40 40.002v87.709c20.488 13.16 34.074 36.13 34.074 62.29 0 40.87-33.13 74-74 74z" />
<glyph unicode="&#xe937;" glyph-name="logout" horiz-adv-x="1138" d="M167.522 810.070c167.599 167.542 422.296 194.622 618.056 81.467 12.578-7.782 21.629-20.157 25.242-34.501 3.607-14.345 1.485-29.53-5.911-42.338-7.401-12.807-19.496-22.23-33.724-26.269s-29.474-2.379-42.496 4.631c-60.547 34.889-129.206 53.234-199.080 53.192-69.877-0.043-138.512-18.471-199.014-53.433s-110.738-85.23-145.664-145.752c-34.926-60.522-53.313-129.169-53.313-199.046 0-69.874 18.386-138.522 53.313-199.046s85.163-110.791 145.664-145.749c60.501-34.964 129.137-53.396 199.014-53.436 69.874-0.040 138.534 18.301 199.080 53.191 13.022 7.009 28.268 8.67 42.496 4.631s26.322-13.46 33.724-26.271c7.396-12.806 9.518-27.989 5.911-42.337-3.612-14.342-12.663-26.715-25.242-34.497-195.76-113.215-450.458-86.135-618.056 81.465-47.545 47.548-85.261 103.987-110.992 166.11s-38.975 128.7-38.975 195.94c0 67.239 13.244 133.82 38.975 195.94s63.447 118.564 110.992 166.109zM887.58 658.913c10.672 10.665 25.139 16.656 40.226 16.656 15.081 0 29.548-5.992 40.22-16.656l107.577-107.58c10.183-10.183 20.082-20.025 27.762-29.128 8.42-9.956 17.522-22.529 22.869-39.026 7.424-22.851 7.424-47.466 0-70.316-4.955-14.416-12.726-27.702-22.869-39.086-8.875-10.041-18.136-19.74-27.762-29.070l-107.52-107.577c-10.667-10.678-25.139-16.674-40.232-16.68s-29.565 5.985-40.243 16.651c-10.672 10.667-16.674 25.139-16.68 40.226-0.006 15.093 5.985 29.571 16.651 40.243l73.563 73.56h-431.571c-15.089 0-29.559 5.994-40.228 16.663s-16.663 25.139-16.663 40.227c0 15.088 5.994 29.558 16.663 40.228s25.139 16.662 40.228 16.662h431.571l-73.563 73.56c-10.661 10.668-16.657 25.136-16.657 40.221s5.996 29.553 16.657 40.222z" />
<glyph unicode="&#xe938;" glyph-name="machine" horiz-adv-x="1303" d="M1238.249 933.495c3.891 18.174 21.411 29.641 39.154 25.746s28.998-21.852 25.097-40.026l-189.961-891.595c-3.24-15.798-16.868-26.615-32.014-26.615h-857.633c-16.227 0-29.64 12.12-32.453 27.909l-189.743 890.301c-3.678 18.174 7.572 36.131 25.313 40.026s35.266-7.572 38.944-25.746l184.335-864.769h804.836l184.125 864.769zM70.795 725.146c9.736 0 28.992 22.068 48.247 44.136 29.208 33.318 58.2 66.42 96.927 66.42s67.936-33.318 97.143-66.42c19.256-22.068 38.512-44.136 48.247-44.136s28.991 22.068 48.247 44.136c28.991 33.318 58.2 66.42 96.927 66.42s67.935-33.318 96.926-66.42c19.256-22.068 38.728-44.136 48.247-44.136s28.992 22.068 48.247 44.136c28.991 33.318 58.2 66.42 96.927 66.42s67.935-33.318 96.927-66.42c19.255-22.068 38.515-44.136 48.243-44.136 9.737 0 28.998 22.068 48.249 44.136 28.989 33.318 58.2 66.42 96.926 66.42s67.938-33.318 96.926-66.42c19.261-22.068 38.512-44.136 48.249-44.136v-67.503c-38.726 0-67.938 33.318-96.926 66.42-19.251 22.069-38.726 44.137-48.249 44.137-9.514 0-28.989-22.068-48.249-44.137-29.203-33.102-58.191-66.42-96.926-66.42-38.724 0-67.932 33.318-96.923 66.42-19.256 22.069-38.512 44.137-48.247 44.137s-28.991-22.068-48.247-44.137c-28.991-33.102-58.2-66.42-96.927-66.42s-67.935 33.318-96.926 66.42c-19.256 22.069-38.512 44.137-48.247 44.137s-28.992-22.068-48.247-44.137c-29.208-33.102-58.2-66.42-96.927-66.42s-67.935 33.318-96.927 66.42c-19.255 22.069-38.511 44.137-48.246 44.137s-28.775-22.068-48.247-43.92c-28.992-33.319-58.2-66.421-97.144-66.421v67.287zM397.491 241.809c49.545 0 90.003 41.54 90.003 92.167s-40.458 92.383-90.003 92.383c-49.545 0-89.787-41.54-89.787-92.383s40.458-92.167 89.787-92.167zM651.707 241.809c49.546 0 89.787 41.54 89.787 92.167s-40.458 92.383-89.787 92.383c-49.329 0-90.003-41.54-90.003-92.383s40.458-92.167 90.003-92.167zM905.924 241.809c49.542 0 89.999 41.54 89.999 92.167s-40.457 92.383-89.999 92.383c-49.546 0-89.787-41.54-89.787-92.383s40.458-92.167 89.787-92.167z" />
<glyph unicode="&#xe939;" glyph-name="mail" horiz-adv-x="1479" d="M1221.291 960h-1044.615c-97.417 0-176.675-79.258-176.675-176.675v-670.649c0-97.417 79.258-176.675 176.675-176.675h1044.615c97.417 0 176.674 79.259 176.674 176.675v670.649c0 97.417-79.258 176.675-176.674 176.675zM1193.688 846.036l-494.707-382.152-494.704 382.152h989.41zM1221.291 49.956h-1044.615c-34.577 0-62.711 28.134-62.711 62.711v659.125l550.182-425.011c10.257-7.925 22.55-11.883 34.835-11.883s24.578 3.958 34.835 11.883l550.177 425.011v-659.117c0-34.584-28.126-62.719-62.703-62.719z" />
<glyph unicode="&#xe93a;" glyph-name="materials" d="M1016.374 927.449l-3.412 21.514-21.514 3.412c-4.631 0.734-115.177 17.78-263.347-1.614-87.173-11.412-169.357-33.17-244.265-64.67-94.139-39.588-176.929-94.718-246.068-163.86-69.142-69.14-124.272-151.933-163.86-246.069-31.5-74.906-53.258-157.089-64.668-244.262-19.394-148.168-2.348-258.711-1.614-263.347l3.414-21.514 21.512-3.412c2.966-0.468 49.33-7.626 121.194-7.626 47.534 0.005 95.017 3.090 142.15 9.239 87.176 11.412 169.359 33.17 244.268 64.671 94.136 39.588 176.929 94.717 246.070 163.858 69.138 69.143 124.27 151.933 163.858 246.070 31.503 74.908 53.261 157.089 64.671 244.268 19.392 148.166 2.345 258.71 1.613 263.344zM955.272 671.892c-10.716-81.856-31.066-158.835-60.488-228.795-36.559-86.943-87.357-163.282-150.976-226.906-63.37-63.37-139.372-114.022-225.889-150.548-69.704-29.43-146.412-49.846-227.983-60.672-75.455-10.017-141.299-9.884-186.155-7.613l429.432 429.435-42.422 42.422-429.472-429.473c-2.26 44.398-2.398 109.45 7.41 184.369 10.714 81.856 31.066 158.835 60.486 228.795 36.56 86.943 87.358 163.282 150.98 226.906 63.37 63.369 139.372 114.023 225.887 150.549 69.706 29.43 146.412 49.844 227.986 60.672 102.441 13.6 187.215 8.498 225.713 4.72 3.768-38.182 8.837-121.916-4.508-223.859z" />
<glyph unicode="&#xe93b;" glyph-name="none" d="M512 960c-281.4 0-512-230.6-512-512 0-281.402 230.6-512 512-512 281.402 0 512 230.598 512 512 0 281.4-230.598 512-512 512zM176.002 251.2c-34.2 57.6-54.002 124.8-54.002 196.8 0 214.2 172.8 389.4 388.798 390 72.602 0 139.8-19.798 198.002-53.998 17.395-10.202 20.998-33.002 7.2-47.402l-492.6-492.6c-14.4-13.798-37.2-10.202-47.398 7.2zM513.202 57.997c-72.602 0-139.802 19.808-198.002 54.003-17.398 10.202-20.998 33.6-6.6 47.398l492.001 492.001c13.798 14.4 37.197 10.8 47.398-6.6 34.195-57.6 54.003-124.8 54.003-196.8 0-215.398-174.003-389.402-388.801-390.003z" />
<glyph unicode="&#xe93c;" glyph-name="no-result" d="M421.678 116.644c-232.515 0-421.678 189.164-421.678 421.678s189.164 421.678 421.678 421.678c232.515 0 421.678-189.164 421.678-421.678s-189.164-421.678-421.678-421.678zM421.678 880.061c-188.436 0-341.739-153.303-341.739-341.739s153.303-341.74 341.739-341.74c188.436 0 341.74 153.303 341.74 341.74s-153.303 341.739-341.74 341.739zM1011.514-52.294c15.608 15.61 15.608 40.918 0 56.526l-178.863 178.863c-15.61 15.611-40.919 15.611-56.527 0-15.607-15.61-15.607-40.919 0-56.526l178.863-178.863c7.804-7.804 18.035-11.706 28.265-11.706s20.456 3.901 28.262 11.706zM520.892 623.452c2.4-2.4 3.748-5.655 3.748-9.050 0-3.393-1.348-6.65-3.748-9.050l-67.75-67.75 67.75-67.75c2.332-2.414 3.622-5.647 3.593-9.004s-1.376-6.566-3.749-8.94c-2.373-2.373-5.583-3.72-8.94-3.749-3.356-0.028-6.589 1.262-9.004 3.593l-67.75 67.75-67.75-67.75c-2.414-2.331-5.647-3.621-9.004-3.593-3.356 0.029-6.566 1.376-8.94 3.749s-3.72 5.583-3.749 8.94c-0.028 3.356 1.262 6.589 3.593 9.004l67.75 67.75-67.75 67.75c-2.331 2.414-3.621 5.647-3.593 9.004 0.029 3.356 1.376 6.566 3.749 8.94s5.583 3.72 8.94 3.749c3.356 0.029 6.589-1.261 9.004-3.593l67.75-67.75 67.75 67.75c2.4 2.4 5.655 3.748 9.050 3.748s6.65-1.348 9.050-3.748z" />
<glyph unicode="&#xe93d;" glyph-name="note" horiz-adv-x="960" d="M668.352 530.414c0 21.569-17.485 39.053-39.053 39.053h-402.249c-21.569 0-39.053-17.484-39.053-39.053s17.484-39.053 39.053-39.053h402.249c21.569 0 39.053 17.484 39.053 39.053zM227.050 413.254c-21.569 0-39.053-17.484-39.053-39.053s17.484-39.053 39.053-39.053h244.3c21.569 0 39.053 17.484 39.053 39.053s-17.484 39.053-39.053 39.053h-244.3zM318.825 38.342h-130.612c-43.068 0-78.107 35.040-78.107 78.106v687.339c0 43.068 35.039 78.107 78.107 78.107h480.139c43.066 0 78.106-35.039 78.106-78.107v-240.177c0-21.569 17.485-39.053 39.053-39.053s39.053 17.484 39.053 39.053v240.177c0 86.136-70.074 156.213-156.211 156.213h-480.139c-86.136 0-156.213-70.077-156.213-156.213v-687.339c0-86.138 70.077-156.211 156.213-156.211h130.612c21.569 0 39.053 17.485 39.053 39.053s-17.484 39.053-39.053 39.053zM893.741 394.563c-45.683 45.681-120.013 45.683-165.664 0.031l-214.406-213.935c-4.552-4.544-7.913-10.138-9.782-16.294l-46.694-153.722c-2.032-6.694-2.231-13.805-0.575-20.602 1.656-6.79 5.106-13.018 9.989-18.022s11.021-8.608 17.772-10.432c6.751-1.824 13.868-1.798 20.607 0.070l157.629 43.661c6.49 1.798 12.397 5.242 17.165 9.997l213.958 213.555c45.677 45.683 45.677 120.008 0 165.693zM631.87 77.85l-79.302-21.971 23.208 76.41 144.672 144.352 55.238-55.245-143.816-143.546zM838.541 284.122l-7.571-7.546-55.232 55.229 7.546 7.526c15.226 15.227 40 15.227 55.226 0s15.226-40.003 0.032-55.209zM629.299 725.681h-402.249c-21.569 0-39.053-17.484-39.053-39.053s17.484-39.053 39.053-39.053h402.249c21.569 0 39.053 17.484 39.053 39.053s-17.485 39.053-39.053 39.053z" />
<glyph unicode="&#xe93e;" glyph-name="notify" horiz-adv-x="768" d="M668.602 95.802h-568.835c-19.652-0.243-38.927 5.395-55.35 16.192-16.423 10.79-29.243 26.253-36.813 44.39s-9.544 38.125-5.669 57.389c3.875 19.27 13.422 36.934 27.415 50.739 20.936 20.454 37.577 44.883 48.949 71.851 11.372 26.97 17.245 55.939 17.275 85.208v126.141c1.128 75.741 32.008 147.997 85.969 201.16s126.669 82.963 202.418 82.963c75.75 0 148.458-29.8 202.419-82.963s84.84-125.419 85.967-201.16v-126.205c0.032-29.264 5.907-58.227 17.28-85.192s28.013-51.387 48.947-71.835c13.952-13.779 23.475-31.405 27.36-50.624s1.946-39.155-5.568-57.267c-7.514-18.112-20.256-33.568-36.602-44.397s-35.552-16.538-55.162-16.39zM384.184 767.955c-8.488 0-16.63 3.372-22.632 9.375s-9.375 14.144-9.375 22.633v128.030c0 8.489 3.372 16.63 9.375 22.633s14.144 9.375 22.632 9.375c8.489 0 16.63-3.372 22.633-9.375s9.375-14.144 9.375-22.633v-128.030c0-8.489-3.372-16.63-9.375-22.633s-14.144-9.375-22.633-9.375zM519.896 31.782c-9.964-28.019-28.358-52.275-52.657-69.427-24.3-17.146-53.312-26.355-83.055-26.355s-58.755 9.21-83.054 26.355c-24.3 17.152-42.694 41.408-52.657 69.427h271.423z" />
<glyph unicode="&#xe93f;" glyph-name="open" d="M654.886 960h-285.77c-258.762 0-369.116-110.354-369.116-369.116v-285.77c0-258.758 110.354-369.114 369.116-369.114h285.77c258.758 0 369.114 110.355 369.114 369.114v285.77c0 258.762-110.355 369.116-369.114 369.116zM619.163 7.443h-250.047c-219.755 0-297.674 77.92-297.674 297.67v285.77c0 219.755 77.919 297.674 297.674 297.674h250.047v-881.115zM952.557 305.114c0-207.366-69.485-288.339-261.952-296.813v879.4c192.467-8.478 261.952-89.446 261.952-296.817v-285.77zM346.731 595.17l121.928-121.927c3.318-3.313 5.95-7.248 7.746-11.58s2.721-8.974 2.721-13.663c0-4.689-0.925-9.332-2.721-13.663s-4.428-8.266-7.746-11.58l-121.928-121.925c-6.74-6.509-15.764-10.099-25.131-10.016s-18.323 3.846-24.943 10.47c-6.62 6.63-10.372 15.59-10.449 24.955s3.528 18.388 10.038 25.122l96.684 96.637-96.684 96.637c-6.51 6.734-10.115 15.756-10.038 25.122s3.83 18.327 10.449 24.953c6.62 6.626 15.578 10.387 24.943 10.473s18.391-3.51 25.131-10.015z" />
<glyph unicode="&#xe940;" glyph-name="payment" horiz-adv-x="1336" d="M6.359 937.739h1311.801v-979.478h-1311.801v979.478zM1230.706 850.285h-1136.893v-804.57h1136.893v804.57zM6.359 716.191h1311.801v-309.004h-1311.801v309.004zM1230.706 628.737h-1136.893v-134.096h1136.893v134.096z" />
<glyph unicode="&#xe941;" glyph-name="payment-1" horiz-adv-x="870" d="M853.332 482.132h-17.065v221.868c0 4.526-1.8 8.867-5 12.068s-7.542 4.999-12.068 4.999h-204.8v153.6c-0.028 22.623-9.027 44.313-25.024 60.31s-37.686 24.996-60.308 25.023h-443.734c-22.623-0.027-44.313-9.026-60.31-25.023s-24.996-37.686-25.023-60.31v-853.334c0.027-22.623 9.026-44.311 25.023-60.308s37.686-24.996 60.31-25.024h443.734c22.623 0.028 44.311 9.027 60.308 25.024s24.996 37.686 25.024 60.308v153.6h204.8c4.526 0 8.868 1.8 12.068 5s5 7.542 5 12.068v119.468h17.065c4.526 0 8.868 1.797 12.068 4.997 3.203 3.203 5 7.542 5 12.068v136.535c0 4.526-1.797 8.865-5 12.068-3.2 3.2-7.542 4.997-12.068 4.997zM802.132 618.668h-512c-9.052 0-17.733 3.594-24.136 9.997-6.4 6.4-9.997 15.084-9.997 24.136s3.597 17.736 9.997 24.136c6.403 6.403 15.084 9.997 24.136 9.997h512v-68.265zM204.8 925.867h204.8v-17.067c0-4.526-1.797-8.867-5-12.068-3.2-3.201-7.542-4.999-12.068-4.999h-170.666c-4.526 0-8.867 1.798-12.068 4.999s-4.999 7.542-4.999 12.068v17.067zM580.268 21.332c0-13.578-5.394-26.601-14.996-36.204s-22.625-14.996-36.204-14.996h-443.734c-13.579 0-26.602 5.394-36.204 14.996s-14.996 22.625-14.996 36.204v853.334c0 13.579 5.394 26.602 14.996 36.204s22.625 14.996 36.204 14.996h85.334v-17.067c0-13.579 5.394-26.602 14.996-36.204s22.625-14.996 36.204-14.996h170.666c13.581 0 26.604 5.394 36.204 14.996 9.603 9.602 14.996 22.625 14.996 36.204v17.067h85.335c13.578 0 26.601-5.394 36.204-14.996s14.996-22.625 14.996-36.204v-153.6h-290.135c-18.104 0-35.469-7.193-48.271-19.995s-19.995-30.167-19.995-48.271v-392.532c0.027-22.625 9.026-44.314 25.023-60.311s37.687-24.996 60.31-25.024h273.068v-153.6zM802.132 209.068h-494.932c-13.578 0-26.601 5.394-36.204 14.996-9.603 9.6-14.996 22.623-14.996 36.204v333.755c10.332-6.141 22.113-9.418 34.132-9.49h512v-102.4h-85.332c-13.578 0-26.601-5.394-36.204-14.996-9.603-9.6-14.996-22.623-14.996-36.204v-68.265c0-13.581 5.394-26.604 14.996-36.204 9.603-9.603 22.625-14.996 36.204-14.996h85.332v-102.4zM836.268 345.6h-119.468c-4.526 0-8.868 1.797-12.068 5-3.2 3.2-5 7.542-5 12.068v68.265c0 4.526 1.8 8.868 5 12.068 3.2 3.203 7.542 5 12.068 5h119.468v-102.4zM733.868 413.868h34.132v-34.135h-34.132v34.135zM477.868 448h34.132c4.526 0 8.868-1.797 12.068-5 3.2-3.2 5-7.542 5-12.068h34.132c0 13.581-5.394 26.604-14.996 36.204-9.603 9.603-22.625 14.996-36.204 14.996v34.135h-34.132v-34.135c-13.581 0-26.604-5.394-36.204-14.996-9.603-9.6-14.996-22.623-14.996-36.204 0-13.578 5.394-26.601 14.996-36.204 9.6-9.603 22.623-14.996 36.204-14.996h34.132c4.526 0 8.868-1.797 12.068-4.997 3.2-3.203 5-7.542 5-12.068s-1.8-8.868-5-12.068c-3.2-3.203-7.542-5-12.068-5h-34.132c-4.526 0-8.868 1.797-12.068 5-3.203 3.2-5 7.542-5 12.068h-34.132c0-13.581 5.394-26.604 14.996-36.204 9.6-9.603 22.623-14.996 36.204-14.996v-34.135h34.132v34.135c13.578 0 26.601 5.394 36.204 14.996 9.603 9.6 14.996 22.623 14.996 36.204 0 13.578-5.394 26.601-14.996 36.204s-22.625 14.996-36.204 14.996h-34.132c-4.526 0-8.868 1.797-12.068 4.997-3.203 3.203-5 7.542-5 12.068s1.797 8.868 5 12.068c3.2 3.203 7.542 5 12.068 5z" />
<glyph unicode="&#xe942;" glyph-name="person" horiz-adv-x="1148" d="M574.076 892.043c194.706 0 353.109-158.404 353.109-353.109h64.202c-22.99 553.756-811.84 553.328-834.621 0h64.202c0 194.707 158.405 353.109 353.108 353.109zM1020.31 258.070c77.095 80.117 19.211 216.986-93.125 216.663-112.333 0.326-170.223-136.567-93.125-216.663-25.575-14.203-47.61-34.006-64.453-57.924-21.377 37.603-53.080 68.288-91.356 88.43 112.265 95.694 45.121 281.885-104.175 282.46-149.296-0.577-216.43-186.793-104.169-282.46-38.279-20.142-69.983-50.828-91.359-88.43-16.84 23.921-38.875 43.722-64.45 57.924 77.092 80.117 19.211 216.986-93.128 216.663-112.333 0.326-170.222-136.567-93.124-216.663-59.271-32.88-99.482-96.101-99.482-168.544v-128.403h1091.427v128.403c0 72.443-40.212 135.664-99.48 168.544zM862.984 346.329c0 35.402 28.799 64.202 64.202 64.202 85.172-3.525 85.147-124.888 0-128.403-35.402 0-64.202 28.802-64.202 64.202zM477.774 410.531c0 53.102 43.2 96.303 96.303 96.303 127.758-5.288 127.721-187.336 0-192.605-53.102 0-96.303 43.203-96.303 96.303zM156.767 346.329c0 35.402 28.801 64.202 64.202 64.202 85.172-3.525 85.146-124.888 0-128.403-35.401 0-64.202 28.802-64.202 64.202zM349.37 25.324h-256.805v64.202c7.073 170.384 249.795 170.254 256.805 0v-64.202zM734.58 25.324h-321.008v64.202c8.841 212.98 312.249 212.815 321.008 0v-64.202zM1055.589 25.324h-256.807v64.202c7.072 170.384 249.794 170.254 256.807 0v-64.202z" />
<glyph unicode="&#xe943;" glyph-name="picture" d="M415.744 960c-64.696 0-115.686 0-156.698-3.361-41.8-3.413-76.774-10.503-108.492-26.677-51.893-26.435-94.082-68.624-120.517-120.517-16.174-31.718-23.263-66.691-26.677-108.492-3.361-41.012-3.361-92.002-3.361-156.698v-192.512c0-64.694 0-115.684 3.361-156.7 3.413-41.796 10.503-76.772 26.677-108.487 26.435-51.894 68.624-94.083 120.517-120.519 31.718-16.174 66.691-23.262 108.492-26.675 41.012-3.362 92.002-3.362 156.698-3.362h192.512c64.694 0 115.684 0 156.7 3.362 41.796 3.413 76.772 10.502 108.487 26.675 51.894 26.436 94.083 68.625 120.519 120.519 5.706 11.253 10.399 22.989 14.023 35.078l5.672 4.358-3.26 4.198c5.2 19.905 8.3 41.279 10.24 64.853 3.362 41.017 3.362 92.006 3.362 156.7v192.512c0 64.696 0 115.686-3.362 156.698-3.413 41.8-10.502 76.774-26.675 108.492-26.419 51.885-68.591 94.073-120.462 120.517-31.772 16.174-66.748 23.263-108.544 26.677-41.017 3.361-92.006 3.361-156.7 3.361h-192.512zM945.232 353.479c0-58.186 0-101.877-2.048-136.954l-17.857 23c-19.53 24.997-35.652 45.739-50.148 61.44-15.019 16.174-30.982 29.929-51.041 38.44-30.521 12.823-64.523 14.768-96.313 5.513-20.952-6.042-38.332-17.96-55.137-32.347-13.915-11.924-29.514-27.466-47.679-45.949l-98.674 118.676c-19.535 23.476-35.709 42.958-50.255 57.714-15.019 15.229-30.878 28.199-50.57 36.024-30.020 11.926-63.172 13.442-94.155 4.306-20.323-5.986-37.284-17.382-53.668-31.245-15.754-13.286-33.713-31.245-55.296-52.828l-143.045-143.046c-0.514 32.415-0.707 64.836-0.577 97.257v189.044c0 66.796 0 114.583 3.098 152.025 2.993 36.969 8.769 60.389 18.379 79.136 18.872 37.078 49.002 67.227 86.069 86.121 18.747 9.557 42.168 15.334 79.136 18.38 37.442 2.993 85.229 3.045 152.025 3.045h189.044c66.799 0 114.586 0 151.973-3.098 36.972-2.993 60.393-8.769 79.189-18.379 37.080-18.872 67.226-49.002 86.124-86.069 9.557-18.747 15.332-42.168 18.375-79.136 2.998-37.442 3.049-85.229 3.049-152.025v-189.044zM100.247 122.317c-5.073 10.149-8.916 20.867-11.448 31.926l188.101 188.154c23.106 23.103 38.65 38.599 51.62 49.519 12.603 10.66 19.745 14.284 25.101 15.859 14.082 4.157 29.151 3.473 42.798-1.943 5.199-2.1 11.973-6.354 23.578-18.117 11.868-12.078 25.941-28.985 46.841-54.090l125.818-151.393 142.626-165.837c-33.604-1.576-75.042-1.627-128.762-1.627h-189.044c-66.796 0-114.583 0-152.025 3.1-36.969 2.992-60.389 8.767-79.136 18.381-37.078 18.87-67.174 48.998-86.069 86.067zM837.683 36.193c-3.567-1.786-7.299-3.465-11.236-5.040l-150.448 175.024c20.952 21.271 35.601 36.028 47.94 46.581 13.079 11.184 20.48 14.967 25.89 16.543 14.444 4.198 29.935 3.305 43.799-2.52 5.194-2.207 12.078-6.827 23.785-19.382 11.924-12.863 25.993-30.925 46.74-57.606l56.764-72.886c-19.024-34.628-48.026-62.783-83.234-80.714zM656.412 605.538c0 17.409 6.912 34.105 19.223 46.415s29.008 19.226 46.416 19.226c17.408 0 34.105-6.916 46.416-19.226s19.228-29.006 19.228-46.415c0-17.409-6.918-34.105-19.228-46.415s-29.008-19.226-46.416-19.226c-17.408 0-34.105 6.916-46.416 19.226s-19.223 29.006-19.223 46.415zM722.051 749.949c-18.961 0-37.74-3.735-55.262-10.993s-33.439-17.894-46.854-31.304c-13.409-13.409-24.047-29.329-31.3-46.85-7.259-17.521-10.997-36.299-10.997-55.264s3.738-37.743 10.997-55.264c7.253-17.521 17.892-33.44 31.3-46.85 13.414-13.41 29.332-24.047 46.854-31.304s36.301-10.993 55.262-10.993c38.303 0 75.031 15.214 102.116 42.297 27.079 27.082 42.297 63.813 42.297 102.113s-15.218 75.031-42.297 102.113c-27.085 27.083-63.812 42.297-102.116 42.297z" />
<glyph unicode="&#xe944;" glyph-name="pictures" horiz-adv-x="1195" d="M252.556 891.121h819.657c19.024 0 34.441-15.418 34.441-34.439v-323.735l-205.102 145.207c-12.993 9.199-30.601 8.293-42.581-2.19l-271.206-237.305-124.261 108.731c-12.465 10.907-30.931 11.395-43.956 1.162l-201.431-158.265v466.396c0 19.021 15.418 34.439 34.439 34.439zM1175.535 466.778v389.904c0 57.062-46.256 103.318-103.322 103.318h-819.657c-57.062 0-103.318-46.256-103.318-103.318v-43.624h-45.92c-57.062 0-103.318-46.256-103.318-103.318v-670.424c0-57.060 46.256-103.316 103.318-103.316h819.659c57.065 0 103.322 46.256 103.322 103.316v43.628h45.915c57.065 0 103.322 46.256 103.322 103.316v279.638c0 0.294 0 0.587 0 0.88zM1106.654 448.553v-262.293c0-19.024-15.417-34.441-34.441-34.441h-819.657c-19.021 0-34.439 15.417-34.439 34.441v116.429l221.526 174.055 125.446-109.765c12.983-11.361 32.37-11.361 45.358 0l273.459 239.275 222.748-157.701zM149.238 319.721c-0.002-0.21-0.002-0.427 0-0.637v-132.824c0-57.060 46.256-103.316 103.318-103.316h704.861v-43.628c0-19.018-15.417-34.435-34.441-34.435h-819.659c-19.021 0-34.439 15.417-34.439 34.435v670.424c0 19.021 15.418 34.439 34.439 34.439h45.92v-424.458zM587.765 744.179c-21.554 0-39.029-17.475-39.029-39.031s17.475-39.031 39.029-39.031c21.561 0 39.031 17.475 39.031 39.031s-17.471 39.031-39.031 39.031zM479.857 705.148c0 59.597 48.313 107.91 107.908 107.91 59.597 0 107.913-48.313 107.913-107.91s-48.316-107.91-107.913-107.91c-59.595 0-107.908 48.313-107.908 107.91z" />
</font>
</defs>
</svg>
